<?xml version="1.0" standalone="no"?>
<!DOCTYPE svg PUBLIC "-//W3C//DTD SVG 20010904//EN"
 "http://www.w3.org/TR/2001/REC-SVG-20010904/DTD/svg10.dtd">
<svg version="1.0" xmlns="http://www.w3.org/2000/svg"
 width="297.000000pt" height="216.000000pt" viewBox="0 0 297.000000 216.000000"
 preserveAspectRatio="xMidYMid meet">
<metadata>
Created by potrace 1.10, written by Peter Selinger 2001-2011
</metadata>
<g transform="translate(0.000000,216.000000) scale(0.100000,-0.100000)"
  stroke="none">
<path d="M1190 2035 c0 -92 3 -125 13 -127 6 -1 28 -2 47 -3 19 -1 41 -3 48
-4 7 0 12 -15 12 -35 0 -47 9 -66 31 -66 24 0 31 29 27 105 l-3 60 -45 1 c-25
1 -51 2 -58 3 -9 1 -12 17 -10 59 l3 57 310 0 310 0 3 -57 c2 -42 -1 -58 -10
-59 -7 -1 -33 -2 -57 -3 -39 -1 -46 -4 -52 -26 -17 -59 -5 -140 21 -140 19 0
40 33 40 66 0 20 5 35 13 35 6 1 28 3 47 4 19 1 41 3 48 4 9 1 12 33 12 126
l0 125 -375 0 -375 0 0 -125z"/>
<path d="M1160 1702 c-17 -2 -95 -73 -243 -220 l-217 -217 -125 -1 c-69 0
-128 -3 -131 -7 -3 -3 -8 -27 -9 -52 -2 -26 -6 -49 -9 -52 -3 -3 -25 -8 -48
-10 -67 -8 -71 3 -69 164 2 103 -1 138 -11 144 -7 5 -77 9 -155 9 l-143 0 0
-505 0 -505 138 0 c181 0 174 -7 171 168 -1 71 1 134 5 140 10 16 113 16 118
0 3 -7 4 -30 2 -50 -5 -62 8 -67 154 -67 70 0 133 0 139 0 10 -1 13 -55 15
-218 l3 -218 291 -3 292 -2 90 -90 90 -90 439 2 438 3 3 308 c1 192 6 307 12
308 13 1 147 1 160 0 5 -1 11 -55 12 -128 l3 -128 170 -3 c163 -3 171 -2 188
19 16 20 17 61 17 556 0 353 3 532 10 528 6 -3 10 -2 10 3 0 24 -61 32 -225
30 l-170 -3 -2 -105 c-4 -156 2 -147 -93 -147 -44 -1 -83 3 -86 8 -3 5 -5 102
-4 214 0 169 -2 206 -14 211 -15 6 -1173 11 -1216 6z m1160 -70 c0 -4 1 -115
1 -247 1 -225 7 -275 29 -275 18 0 40 33 40 61 0 16 6 29 13 30 6 0 58 0 114
-1 120 -2 112 -13 116 150 l2 105 114 3 c63 1 118 -1 123 -6 5 -5 9 -231 8
-502 0 -386 -3 -495 -12 -502 -7 -4 -62 -7 -123 -6 l-110 3 -5 130 -5 130
-113 1 c-62 1 -115 4 -118 7 -4 3 -7 37 -8 74 l-1 68 -30 0 -30 0 -2 -384 c-1
-211 -4 -385 -6 -387 -2 -2 -178 -4 -391 -4 l-387 -1 -91 91 -91 90 -273 0
c-212 0 -274 3 -275 13 0 6 0 93 1 192 0 99 -3 194 -8 210 l-8 30 -143 1 c-78
1 -144 4 -147 7 -3 3 -7 50 -7 104 l-2 98 -30 0 c-26 0 -30 -4 -31 -30 -1 -16
-2 -36 -3 -42 -1 -9 -24 -13 -80 -13 -119 0 -112 10 -110 -152 1 -92 -3 -143
-11 -152 -8 -10 -34 -14 -91 -14 -72 1 -80 3 -84 22 -3 12 -4 210 -3 441 l3
420 84 3 c47 2 89 -2 94 -7 6 -6 9 -65 8 -143 -3 -166 0 -169 108 -167 39 1
74 0 76 -3 3 -2 7 -22 10 -43 5 -45 15 -58 37 -50 22 9 28 36 28 133 0 45 3
82 8 83 4 0 53 1 109 2 l103 2 217 216 c120 119 224 218 230 220 25 7 1153 -1
1153 -9z"/>
</g>
</svg>
