<?xml version="1.0" standalone="no"?>
<!DOCTYPE svg PUBLIC "-//W3C//DTD SVG 20010904//EN"
 "http://www.w3.org/TR/2001/REC-SVG-20010904/DTD/svg10.dtd">
<svg version="1.0" xmlns="http://www.w3.org/2000/svg"
 width="357.000000pt" height="366.000000pt" viewBox="0 0 357.000000 366.000000"
 preserveAspectRatio="xMidYMid meet">
<metadata>
Created by potrace 1.10, written by Peter Selinger 2001-2011
</metadata>
<g transform="translate(0.000000,366.000000) scale(0.100000,-0.100000)"
  stroke="none">
<path d="M2450 3645 c0 -9 -14 -16 -37 -20 -44 -7 -125 -31 -168 -50 -16 -8
-37 -16 -45 -19 -8 -4 -28 -15 -45 -26 -16 -11 -37 -23 -45 -27 -25 -11 -130
-93 -167 -131 -43 -43 -153 -190 -153 -204 0 -22 -120 -153 -402 -440 -161
-164 -432 -441 -602 -615 -170 -175 -384 -392 -476 -483 -172 -171 -230 -237
-230 -263 0 -8 -7 -20 -15 -27 -8 -7 -15 -20 -15 -29 0 -9 -5 -22 -11 -28 -20
-20 -32 -95 -36 -228 -5 -132 6 -215 33 -267 8 -14 14 -31 14 -37 0 -28 79
-138 143 -201 75 -73 84 -79 159 -116 104 -52 125 -57 348 -83 52 -6 111 -15
130 -21 19 -5 55 -10 80 -10 25 0 61 -5 80 -10 19 -6 69 -15 110 -20 111 -13
216 -29 300 -46 42 -7 93 -14 115 -14 22 0 58 -5 80 -11 22 -6 74 -14 115 -19
41 -5 100 -13 130 -18 30 -6 109 -18 175 -27 66 -9 145 -21 175 -27 30 -6 87
-14 125 -19 39 -4 95 -12 125 -17 30 -6 109 -18 175 -27 66 -9 145 -21 175
-27 30 -6 89 -14 130 -19 41 -4 97 -11 123 -15 69 -10 191 14 261 50 33 17 83
54 111 82 49 50 108 150 120 207 3 15 12 27 20 27 13 0 15 151 15 1236 0 760
-4 1233 -9 1229 -13 -8 -19 4 -30 66 -13 76 -66 208 -114 284 -72 116 -226
277 -304 318 -139 74 -217 106 -295 120 -37 6 -58 15 -58 23 0 11 -31 14 -155
14 -129 0 -155 -2 -155 -15z m326 -136 c122 -29 184 -56 286 -122 176 -116
302 -299 355 -517 22 -88 22 -302 0 -390 -40 -167 -117 -301 -242 -425 -75
-76 -230 -175 -273 -175 -10 0 -22 -4 -27 -9 -33 -33 -285 -60 -377 -41 -118
25 -135 29 -178 45 -25 9 -49 21 -55 26 -5 5 -15 9 -21 9 -20 0 -135 80 -193
134 -178 168 -277 398 -273 636 2 85 18 203 30 227 7 12 12 29 12 37 0 15 57
140 83 181 59 95 167 210 242 257 68 43 157 88 174 88 9 0 25 7 35 15 11 8 31
15 45 15 14 1 49 7 76 14 72 20 208 17 301 -5z m-1115 -769 c-7 -44 -10 -87
-7 -96 3 -9 9 -46 11 -83 20 -247 172 -514 385 -674 25 -18 52 -37 60 -40 8
-4 29 -16 45 -27 17 -11 37 -22 45 -26 8 -3 23 -10 32 -15 26 -13 132 -45 213
-63 79 -18 240 -21 300 -5 22 6 62 14 89 19 27 5 54 14 60 20 5 5 18 10 28 10
28 0 179 82 247 134 85 66 165 149 214 223 22 34 44 60 49 57 9 -6 11 -1337 2
-1347 -4 -3 -24 9 -45 27 -152 130 -392 148 -553 43 -69 -45 -159 -151 -188
-222 -30 -72 -49 -195 -39 -245 6 -25 13 -58 17 -75 8 -40 64 -155 75 -155 5
0 9 -7 9 -16 0 -18 -22 -17 -130 4 -30 6 -109 18 -175 27 -66 9 -145 21 -175
27 -30 5 -86 13 -125 17 -38 5 -95 13 -125 19 -30 6 -109 18 -175 27 -66 9
-157 23 -202 31 -45 7 -97 14 -115 14 -18 0 -58 7 -88 15 -30 8 -71 15 -90 15
-19 0 -71 7 -115 15 -44 8 -109 18 -145 22 -75 9 -91 31 -43 57 42 22 115 94
160 156 91 124 142 296 130 435 -7 82 -23 168 -35 191 -5 10 -20 42 -32 69
-27 58 -89 147 -134 190 -40 38 -106 90 -126 98 -8 4 -22 11 -30 15 -72 42
-159 64 -265 69 -49 2 -96 6 -104 9 -9 3 10 28 58 77 130 131 532 543 781 800
141 146 249 250 254 246 6 -5 5 -39 -3 -89z m-908 -1175 c20 -8 45 -15 56 -15
35 0 144 -72 212 -139 91 -92 131 -176 148 -310 20 -161 -29 -324 -133 -439
-46 -50 -155 -132 -176 -132 -5 0 -24 -6 -42 -14 -18 -8 -69 -19 -113 -26
-250 -36 -488 129 -577 400 -34 102 -18 270 36 378 41 84 49 95 106 152 56 56
73 68 150 106 100 50 262 69 333 39z m2407 -730 c190 -32 324 -260 264 -451
-46 -151 -152 -241 -314 -268 -38 -6 -163 23 -182 42 -7 7 -18 12 -24 12 -16
0 -124 107 -124 122 0 6 -6 19 -13 27 -7 9 -22 51 -32 94 -15 62 -16 85 -8
110 6 18 14 47 18 65 11 52 53 118 104 164 94 83 177 106 311 83z"/>
<path d="M2548 3434 c-4 -4 -38 -13 -75 -20 -118 -22 -203 -62 -311 -146 -176
-136 -295 -399 -279 -615 10 -139 60 -295 123 -380 13 -17 24 -35 24 -40 0 -5
8 -16 18 -24 11 -9 25 -25 33 -35 18 -25 121 -114 131 -114 5 0 27 -13 50 -30
22 -16 48 -30 58 -30 9 0 20 -4 26 -10 5 -5 43 -19 84 -30 138 -36 343 -24
443 26 16 8 34 14 41 14 18 0 157 94 196 133 78 78 150 174 150 201 0 8 7 19
15 26 8 7 15 22 15 34 0 12 5 27 11 33 5 5 19 52 30 104 22 99 22 249 0 314
-5 17 -15 48 -21 70 -59 203 -244 398 -451 475 -83 31 -295 61 -311 44z m182
-140 c48 -6 133 -41 224 -90 46 -26 138 -125 179 -192 20 -35 37 -68 37 -73 0
-6 5 -20 12 -32 18 -31 47 -173 48 -229 0 -53 -34 -206 -50 -222 -5 -5 -10
-16 -10 -24 0 -8 -16 -40 -35 -71 -165 -269 -490 -374 -765 -247 -108 50 -216
148 -273 246 -43 75 -55 109 -80 224 -21 103 -21 113 11 261 8 36 49 128 87
195 21 37 127 145 161 163 99 53 179 87 207 88 17 1 42 4 55 7 28 8 116 6 192
-4z"/>
<path d="M2587 3152 c-10 -10 -17 -24 -17 -30 0 -15 29 -42 45 -42 7 0 21 7
29 16 9 8 16 22 16 29 0 17 -27 45 -44 45 -7 0 -20 -8 -29 -18z"/>
<path d="M2323 2967 c-10 -21 -8 -28 8 -46 22 -23 28 -25 47 -12 8 5 12 22 10
42 -2 28 -8 35 -29 37 -19 2 -28 -3 -36 -21z"/>
<path d="M2844 2976 c-9 -24 0 -58 19 -70 15 -9 22 -7 37 12 16 19 17 27 8 48
-13 27 -55 34 -64 10z"/>
<path d="M2470 2882 c-82 -40 -131 -105 -148 -197 -29 -161 86 -303 248 -307
54 -1 107 17 151 51 62 48 86 87 109 178 15 62 -38 190 -100 241 -63 51 -189
67 -260 34z m158 -126 c52 -27 65 -51 65 -118 0 -59 -1 -63 -39 -95 -56 -47
-109 -46 -164 3 -37 33 -40 40 -40 88 0 33 7 61 19 80 34 51 106 70 159 42z"/>
<path d="M2152 2683 c2 -29 8 -39 24 -41 11 -2 28 6 38 17 25 28 6 61 -35 61
-29 0 -30 -2 -27 -37z"/>
<path d="M3010 2699 c-9 -16 -8 -25 6 -40 9 -10 26 -19 36 -19 21 0 38 34 30
62 -6 26 -58 24 -72 -3z"/>
<path d="M2324 2345 c-8 -34 15 -60 45 -50 18 5 22 13 19 38 -2 26 -8 33 -30
35 -22 3 -29 -2 -34 -23z"/>
<path d="M2847 2364 c-4 -4 -7 -20 -7 -35 0 -19 6 -30 20 -34 28 -9 52 13 48
44 -2 19 -9 27 -28 29 -14 2 -29 0 -33 -4z"/>
<path d="M2581 2266 c-7 -8 -10 -24 -6 -36 8 -26 72 -29 82 -4 15 39 -49 72
-76 40z"/>
<path d="M506 1288 c-127 -69 -191 -202 -162 -340 16 -74 28 -99 76 -151 58
-64 121 -90 215 -90 98 0 152 22 211 85 40 43 62 82 83 149 38 122 -38 279
-168 347 -58 31 -198 30 -255 0z m231 -127 c101 -73 101 -229 0 -302 -34 -25
-50 -29 -102 -29 -52 0 -68 4 -101 28 -81 59 -101 175 -46 260 49 75 175 97
249 43z"/>
<path d="M3105 510 c-15 -17 -16 -24 -7 -46 10 -20 18 -25 40 -22 22 2 28 9
30 33 3 19 -2 33 -14 42 -24 17 -28 17 -49 -7z"/>
</g>
</svg>
