<?xml version="1.0" standalone="no"?>
<!DOCTYPE svg PUBLIC "-//W3C//DTD SVG 20010904//EN"
 "http://www.w3.org/TR/2001/REC-SVG-20010904/DTD/svg10.dtd">
<svg version="1.0" xmlns="http://www.w3.org/2000/svg"
 width="369.000000pt" height="372.000000pt" viewBox="0 0 369.000000 372.000000"
 preserveAspectRatio="xMidYMid meet">
<metadata>
Created by potrace 1.10, written by Peter Selinger 2001-2011
</metadata>
<g transform="translate(0.000000,372.000000) scale(0.100000,-0.100000)"
  stroke="none">
<path d="M112 3700 c-7 -11 -18 -20 -25 -20 -14 0 -55 -42 -75 -77 -14 -26
-16 -152 -3 -197 13 -44 32 -125 41 -171 4 -22 13 -62 20 -90 6 -27 18 -75 25
-105 7 -30 18 -75 25 -100 6 -25 14 -58 16 -75 3 -16 11 -52 19 -80 7 -27 21
-86 30 -130 10 -44 23 -102 30 -130 27 -106 38 -151 45 -190 4 -22 13 -62 20
-90 6 -27 18 -75 25 -105 7 -30 18 -75 25 -100 6 -25 15 -65 20 -90 5 -25 14
-65 20 -90 24 -91 54 -220 69 -295 5 -22 14 -62 21 -90 6 -27 18 -75 25 -105
7 -30 19 -77 25 -105 7 -27 16 -70 20 -95 16 -93 56 -134 99 -104 26 18 28 81
7 158 -16 57 -33 129 -46 196 -5 25 -14 65 -20 90 -19 77 -32 133 -40 175 -9
47 -26 120 -46 191 -8 28 -14 62 -14 75 0 13 -6 44 -14 69 -8 25 -22 81 -31
125 -9 44 -23 103 -31 131 -8 28 -14 59 -14 69 0 10 -6 41 -14 69 -8 28 -22
87 -31 131 -9 44 -22 103 -30 130 -39 144 -34 193 25 233 29 19 45 22 134 21
210 -1 340 -71 407 -218 12 -25 26 -55 31 -65 6 -11 14 -31 18 -45 5 -14 18
-51 30 -81 60 -157 85 -232 134 -412 27 -98 61 -277 72 -373 3 -27 10 -81 15
-120 6 -38 12 -106 15 -150 2 -44 7 -96 11 -115 11 -65 13 -75 23 -214 6 -77
16 -148 21 -158 8 -15 5 -20 -18 -29 -63 -24 -76 -22 -118 15 -72 65 -109 79
-215 80 -80 1 -102 -3 -141 -22 -48 -23 -111 -86 -140 -138 -24 -44 -42 -149
-29 -173 5 -11 10 -32 10 -47 0 -15 6 -50 14 -78 15 -50 33 -122 60 -233 8
-32 20 -80 26 -108 7 -27 16 -66 19 -85 9 -41 35 -85 71 -117 l25 -22 1134 -1
1133 0 58 31 c68 36 113 92 139 176 l18 58 89 5 c122 7 187 39 240 116 l39 56
-1 127 c0 140 -13 191 -72 294 -35 60 -146 187 -165 187 -6 0 -18 6 -26 14
-32 28 -127 70 -181 79 -111 18 -330 2 -610 -45 -36 -6 -103 -14 -150 -19 -47
-4 -119 -13 -160 -19 -151 -22 -286 -40 -335 -44 -50 -4 -125 -14 -325 -41
-220 -31 -269 -33 -280 -16 -4 7 -8 47 -9 89 -1 43 -4 86 -7 97 -8 34 -13 85
-24 210 -5 66 -14 136 -18 155 -5 19 -10 66 -11 104 -1 38 -9 94 -17 125 -8
30 -14 70 -14 89 0 19 -6 61 -14 95 -8 34 -22 96 -31 137 -9 41 -22 93 -29
115 -8 22 -21 69 -31 105 -19 71 -20 75 -90 260 -9 25 -23 58 -31 73 -8 16
-14 34 -14 40 0 6 -17 45 -37 86 -37 75 -148 201 -177 201 -7 0 -23 11 -35 24
-22 23 -22 25 -5 51 14 22 17 49 17 143 0 115 -1 118 -38 192 -55 108 -174
225 -275 272 -41 19 -92 38 -112 42 -23 4 -38 13 -38 21 0 12 -18 15 -93 15
-81 0 -94 -2 -105 -20z m233 -128 c28 -9 57 -22 66 -29 8 -7 23 -13 31 -13 22
0 161 -137 182 -180 10 -19 26 -64 36 -100 16 -62 16 -70 0 -138 -10 -40 -20
-75 -24 -79 -3 -3 -25 -5 -48 -4 -172 12 -270 3 -313 -26 -11 -7 -25 -13 -32
-13 -14 0 -43 97 -89 300 -9 41 -23 95 -30 119 -20 64 -18 144 4 163 9 9 24
18 32 21 25 8 131 -4 185 -21z m2852 -2518 c95 -31 169 -76 231 -143 105 -113
160 -337 106 -430 -43 -74 -32 -72 -402 -71 -278 0 -337 -2 -361 -15 -41 -21
-48 -51 -20 -81 22 -24 24 -24 221 -24 221 0 215 2 178 -68 -24 -47 -44 -66
-85 -83 -45 -19 -1671 -22 -1701 -3 -20 12 -28 42 -37 129 -2 20 5 20 608 22
608 3 610 3 628 24 23 28 22 52 -4 75 -20 18 -49 19 -646 24 l-626 5 -19 85
c-19 83 -33 137 -58 230 -25 97 -30 91 105 111 227 34 270 40 340 45 39 3 97
11 131 19 33 8 81 15 106 15 26 0 82 7 125 15 43 8 94 15 113 15 19 0 80 6
135 14 140 21 257 36 350 46 44 5 94 12 110 15 17 3 68 10 115 15 47 5 103 13
125 18 63 16 179 14 232 -4z m-2248 -120 c32 -11 62 -30 83 -53 34 -38 67
-117 68 -164 0 -16 5 -37 11 -48 6 -11 14 -41 18 -67 5 -26 14 -69 21 -97 6
-27 18 -75 25 -105 7 -30 18 -75 25 -100 23 -92 31 -152 20 -165 -7 -9 -57
-12 -188 -11 -97 1 -182 4 -188 8 -6 4 -18 35 -28 70 -9 35 -24 86 -32 114 -8
28 -14 59 -14 69 0 10 -6 41 -14 69 -8 28 -22 80 -31 116 -9 36 -23 89 -31
118 -14 49 -14 58 2 108 20 66 66 113 131 136 60 21 60 21 122 2z"/>
</g>
</svg>
