<?xml version="1.0" standalone="no"?>
<!DOCTYPE svg PUBLIC "-//W3C//DTD SVG 20010904//EN"
 "http://www.w3.org/TR/2001/REC-SVG-20010904/DTD/svg10.dtd">
<svg version="1.0" xmlns="http://www.w3.org/2000/svg"
 width="366.000000pt" height="357.000000pt" viewBox="0 0 366.000000 357.000000"
 preserveAspectRatio="xMidYMid meet">
<metadata>
Created by potrace 1.10, written by Peter Selinger 2001-2011
</metadata>
<g transform="translate(0.000000,357.000000) scale(0.100000,-0.100000)"
  stroke="none">
<path d="M1615 3561 c7 -13 -58 -31 -110 -31 -45 0 -180 -31 -213 -49 -11 -6
-30 -11 -41 -11 -20 0 -66 -17 -124 -46 -16 -8 -33 -14 -38 -14 -28 0 -319
-157 -319 -172 0 -5 -6 -8 -14 -8 -8 0 -16 -3 -18 -7 -2 -5 -21 -20 -43 -35
-42 -29 -200 -180 -270 -258 -79 -87 -174 -221 -213 -300 -13 -25 -27 -52 -32
-60 -16 -27 -70 -150 -70 -159 0 -5 -6 -22 -14 -38 -19 -39 -37 -91 -46 -138
-5 -22 -13 -58 -19 -80 -27 -104 -33 -188 -28 -400 6 -260 9 -281 64 -475 40
-143 119 -310 211 -448 23 -35 42 -66 42 -68 0 -8 77 -99 145 -172 137 -147
373 -318 543 -392 47 -20 138 -63 157 -73 11 -6 36 -14 55 -18 19 -4 49 -12
65 -17 60 -21 142 -42 225 -57 118 -21 502 -21 583 0 32 8 68 15 81 15 39 0
196 44 274 76 18 8 37 14 43 14 11 0 260 122 301 148 136 86 218 151 323 256
66 67 130 135 143 151 12 17 38 51 57 77 19 26 35 50 35 53 0 4 11 21 24 38
13 18 36 57 50 87 15 30 31 62 35 70 5 8 16 31 24 50 8 19 22 51 30 70 35 81
58 156 93 300 27 110 27 579 1 690 -50 207 -71 267 -156 437 -42 86 -148 256
-170 273 -4 3 -24 28 -46 55 -64 81 -155 173 -230 233 -38 31 -81 67 -95 79
-14 13 -28 23 -33 23 -5 0 -28 15 -52 34 -25 18 -73 48 -107 65 -35 18 -70 36
-78 41 -8 4 -31 14 -50 23 -19 8 -51 21 -70 30 -97 42 -275 90 -425 114 -31 5
-49 13 -47 21 1 9 -49 12 -219 12 -136 0 -218 -4 -214 -9z m422 -136 c43 -8
91 -15 107 -15 16 0 54 -7 85 -17 96 -28 235 -74 266 -88 111 -48 211 -102
259 -138 19 -15 38 -27 41 -27 33 0 309 -261 387 -365 75 -100 109 -156 163
-265 20 -41 43 -87 51 -102 8 -14 14 -35 14 -45 0 -10 4 -23 9 -28 11 -13 46
-134 65 -225 54 -263 44 -514 -31 -780 -86 -305 -306 -630 -558 -824 -76 -59
-147 -108 -190 -132 -91 -50 -204 -107 -234 -118 -264 -95 -381 -116 -655
-116 -246 0 -390 21 -541 77 -141 53 -148 56 -255 108 -256 125 -486 332 -644
580 -71 111 -72 114 -96 165 -12 25 -26 53 -31 62 -37 70 -99 282 -119 408
-44 274 -15 530 95 840 63 175 225 421 367 556 161 152 274 233 448 320 83 41
115 55 175 77 37 13 60 20 205 61 30 8 93 20 140 26 47 5 96 12 110 14 72 10
296 5 367 -9z"/>
<path d="M1345 3248 c-15 -44 -8 -76 20 -94 23 -15 27 -15 50 0 56 37 35 106
-32 106 -18 0 -36 -6 -38 -12z"/>
<path d="M1130 3170 c-30 -15 -62 -31 -70 -34 -8 -3 -28 -15 -45 -26 -16 -11
-39 -24 -50 -30 -42 -22 -63 -36 -100 -65 -194 -153 -301 -265 -390 -413 -6
-9 -22 -35 -36 -57 -13 -22 -40 -71 -58 -110 -36 -75 -35 -88 12 -115 36 -20
67 -2 95 58 60 126 143 250 236 351 70 75 202 186 276 232 39 24 83 52 98 61
41 26 107 58 119 58 18 0 43 36 43 62 0 29 -28 58 -56 57 -10 -1 -44 -14 -74
-29z"/>
<path d="M1745 2899 c-138 -5 -183 -13 -300 -52 -102 -34 -125 -43 -137 -55
-7 -7 -20 -12 -29 -12 -10 0 -21 -5 -24 -11 -4 -5 -17 -14 -28 -20 -75 -32
-203 -139 -307 -256 -61 -68 -150 -220 -186 -318 -49 -134 -66 -231 -67 -385
0 -130 6 -189 29 -275 25 -92 70 -211 91 -236 7 -8 13 -21 13 -27 0 -18 79
-130 141 -200 62 -69 179 -174 214 -192 11 -6 34 -19 50 -29 52 -34 178 -93
235 -110 19 -6 57 -17 84 -26 27 -8 66 -15 85 -15 20 0 56 -5 80 -11 46 -10
135 -13 211 -6 85 9 192 27 210 37 10 6 28 10 39 10 46 0 282 118 364 181 50
40 122 105 151 138 12 13 28 31 37 40 24 26 79 98 79 106 0 3 11 21 24 38 26
36 96 177 96 195 0 6 6 26 14 44 36 85 48 175 47 351 0 102 -5 186 -11 203 -6
16 -15 47 -20 69 -16 74 -74 208 -120 280 -11 17 -23 37 -26 45 -31 68 -259
289 -334 323 -8 4 -28 16 -45 27 -40 26 -114 60 -131 60 -7 0 -15 4 -18 9 -6
8 -97 38 -191 61 -81 20 -171 25 -320 19z m290 -135 c93 -23 90 -22 71 -42 -9
-10 -16 -23 -16 -29 0 -6 -26 -65 -59 -130 -32 -65 -71 -144 -87 -176 -15 -32
-33 -61 -38 -65 -6 -4 -45 -8 -86 -9 -81 -1 -120 13 -120 46 0 10 -7 24 -15
31 -8 7 -15 20 -15 30 0 10 -7 23 -15 30 -8 7 -15 18 -15 24 0 7 -27 66 -60
131 -33 66 -60 125 -60 131 0 43 374 64 515 28z m-633 -81 c8 -10 32 -54 53
-98 20 -44 41 -87 46 -95 5 -8 12 -22 15 -30 3 -8 10 -22 15 -30 5 -8 11 -21
14 -27 3 -7 7 -19 10 -25 3 -7 9 -20 14 -28 22 -38 39 -77 45 -103 5 -23 2
-29 -18 -37 -13 -5 -27 -14 -31 -19 -3 -6 -19 -11 -34 -11 -22 0 -36 13 -82
76 -29 41 -86 119 -125 172 -116 160 -123 180 -72 202 13 6 46 24 73 40 59 35
58 35 77 13z m918 -23 c28 -16 55 -30 59 -30 5 0 15 -10 24 -23 14 -21 13 -25
-14 -57 -16 -19 -29 -41 -29 -48 0 -7 -7 -15 -15 -18 -8 -4 -15 -10 -15 -16 0
-5 -26 -44 -58 -86 -32 -42 -61 -85 -65 -94 -3 -10 -11 -18 -17 -18 -5 0 -10
-6 -10 -12 0 -7 -15 -31 -34 -53 -31 -36 -35 -38 -57 -27 -67 36 -79 44 -79
53 0 10 38 92 140 304 32 66 61 128 64 138 8 26 48 21 106 -13z m-1179 -172
c10 -13 18 -27 19 -31 0 -5 27 -44 60 -87 33 -43 60 -84 60 -89 0 -6 5 -11 10
-11 6 0 14 -8 17 -17 4 -10 24 -41 45 -70 44 -58 47 -40 -21 -158 -35 -59 -44
-62 -169 -44 -48 6 -144 14 -214 18 -69 3 -129 8 -132 11 -10 10 32 129 79
225 46 93 190 275 218 275 5 0 17 -10 28 -22z m1430 -16 c96 -109 131 -159
175 -252 55 -114 66 -146 62 -181 l-3 -34 -130 -5 c-71 -3 -135 -8 -140 -12
-6 -4 -53 -9 -105 -13 l-95 -6 -20 38 c-11 21 -33 56 -48 79 l-28 40 36 55
c20 30 41 56 46 57 5 2 9 8 9 13 0 6 26 45 58 87 32 42 61 85 65 95 3 9 11 17
17 17 5 0 10 5 10 12 0 16 30 48 45 48 7 0 28 -17 46 -38z m-700 -283 c14 -6
35 -22 46 -37 11 -15 41 -37 66 -50 26 -13 49 -27 52 -32 3 -5 26 -12 50 -16
47 -7 95 -36 95 -59 0 -7 7 -18 15 -25 8 -7 15 -23 15 -35 0 -12 -7 -28 -15
-35 -23 -19 -21 -192 2 -231 16 -27 16 -30 -6 -74 -13 -26 -29 -45 -39 -45
-22 0 -192 -86 -215 -109 -6 -6 -18 -11 -27 -11 -9 0 -27 -14 -39 -31 -22 -29
-26 -31 -74 -26 -30 2 -53 10 -56 18 -5 17 -51 59 -76 70 -11 5 -38 20 -60 34
-22 13 -55 24 -74 25 -25 0 -41 9 -68 38 -38 41 -38 46 -12 180 11 51 10 71
-1 110 -24 84 -24 109 0 147 17 28 28 35 54 35 18 0 37 5 43 11 12 12 24 19
107 63 30 15 76 46 102 67 48 40 53 41 115 18z m-856 -315 c50 -2 106 -6 125
-9 19 -2 64 -7 100 -11 36 -4 70 -10 76 -15 8 -6 11 -64 5 -100 -1 -7 -69 -27
-96 -28 -103 -4 -289 -17 -382 -27 -47 -5 -53 -3 -53 13 -3 106 -2 172 4 181
4 7 29 9 69 6 34 -2 103 -7 152 -10z m1826 -1 c2 -78 -1 -174 -6 -182 -3 -6
-30 -8 -63 -5 -31 3 -102 7 -157 9 -115 6 -276 22 -300 31 -13 5 -15 18 -13
63 l3 56 110 13 c61 7 169 17 240 21 72 4 142 8 158 9 19 2 27 -3 28 -15z
m-434 -283 c38 1 332 -19 363 -24 14 -2 28 -5 33 -5 21 -3 -11 -116 -60 -211
-65 -125 -186 -280 -219 -280 -13 0 -65 67 -224 288 -33 45 -60 85 -60 88 0 3
14 26 30 51 17 24 30 46 30 49 0 3 10 18 22 34 17 23 25 27 39 19 10 -5 31 -9
46 -9z m-1096 -12 c13 -30 29 -56 57 -95 12 -17 22 -34 22 -38 0 -7 -39 -62
-207 -292 -37 -51 -71 -93 -75 -93 -20 0 -167 177 -191 230 -4 8 -11 22 -16
30 -5 8 -12 22 -15 30 -3 8 -10 22 -15 30 -20 35 -40 90 -46 132 l-7 44 64 11
c35 5 104 11 153 12 50 2 117 6 150 10 104 14 115 13 126 -11z m244 -189 c4
-5 18 -14 31 -19 38 -15 30 -56 -35 -187 -32 -65 -76 -154 -97 -197 -40 -81
-61 -104 -85 -92 -65 31 -134 74 -142 87 -8 13 3 34 51 97 34 44 62 86 62 92
0 6 7 13 15 16 8 4 15 10 15 16 0 5 26 44 58 86 32 42 61 85 65 95 7 19 52 24
62 6z m625 -68 c33 -44 60 -85 60 -90 0 -6 5 -11 10 -11 6 0 14 -8 17 -17 4
-10 40 -62 80 -116 77 -102 81 -115 35 -140 -106 -60 -133 -71 -150 -61 -9 6
-18 20 -20 32 -2 11 -10 26 -18 32 -8 7 -14 20 -14 30 0 10 -7 23 -15 30 -8 7
-15 20 -15 30 0 10 -7 23 -15 30 -8 7 -15 18 -15 25 0 7 -25 62 -56 124 -38
77 -53 115 -47 126 9 16 69 52 90 54 7 0 39 -35 73 -78z m-272 -75 c10 -6 47
-76 66 -126 3 -8 10 -23 16 -32 5 -10 15 -26 20 -35 6 -10 12 -24 15 -30 3 -7
7 -19 10 -25 3 -7 9 -20 14 -28 5 -8 12 -22 15 -30 3 -8 10 -22 14 -30 20 -35
32 -60 32 -68 0 -17 -56 -35 -130 -43 -41 -4 -99 -11 -128 -15 -74 -10 -302
22 -326 46 -5 5 10 47 37 102 25 51 69 142 98 201 28 59 58 111 65 115 16 9
167 8 182 -2z"/>
<path d="M1746 2010 c-63 -20 -104 -53 -143 -114 -21 -32 -25 -51 -25 -112 0
-40 6 -83 12 -95 18 -33 91 -109 105 -109 7 0 26 -7 41 -15 40 -21 123 -19
175 4 85 38 149 133 149 220 0 92 -75 187 -174 221 -70 24 -66 24 -140 0z
m122 -120 c53 -28 79 -83 62 -134 -16 -50 -66 -86 -118 -86 -34 0 -48 6 -77
35 -30 31 -35 42 -35 84 0 51 17 75 75 105 39 20 47 20 93 -4z"/>
<path d="M3194 1259 c-13 -4 -37 -37 -59 -81 -129 -253 -292 -430 -543 -590
-76 -48 -262 -132 -326 -147 -43 -10 -71 -51 -59 -87 9 -26 14 -29 54 -28 49
1 66 6 214 69 93 40 147 68 194 99 29 20 57 36 61 36 4 0 14 7 21 17 8 9 39
34 69 57 111 82 290 273 323 346 4 8 16 29 27 45 11 17 24 39 30 50 6 11 21
39 34 63 28 49 40 94 32 120 -8 25 -46 41 -72 31z"/>
</g>
</svg>
