<?xml version="1.0" standalone="no"?>
<!DOCTYPE svg PUBLIC "-//W3C//DTD SVG 20010904//EN"
 "http://www.w3.org/TR/2001/REC-SVG-20010904/DTD/svg10.dtd">
<svg version="1.0" xmlns="http://www.w3.org/2000/svg"
 width="363.000000pt" height="321.000000pt" viewBox="0 0 363.000000 321.000000"
 preserveAspectRatio="xMidYMid meet">
<metadata>
Created by potrace 1.10, written by Peter Selinger 2001-2011
</metadata>
<g transform="translate(0.000000,321.000000) scale(0.100000,-0.100000)"
  stroke="none">
<path d="M1600 3196 c0 -10 -19 -16 -67 -21 -38 -4 -90 -13 -118 -21 -154 -43
-196 -57 -201 -65 -3 -5 -14 -9 -26 -9 -17 0 -41 -10 -98 -41 -8 -5 -35 -18
-60 -31 -25 -12 -63 -34 -85 -48 -68 -42 -80 -49 -95 -56 -59 -29 -300 -245
-382 -344 -80 -97 -118 -147 -118 -155 0 -4 -12 -24 -28 -44 -33 -44 -44 -62
-77 -126 -14 -27 -30 -57 -35 -65 -15 -25 -70 -149 -70 -159 0 -5 -6 -22 -14
-38 -24 -49 -62 -173 -76 -248 -4 -22 -12 -60 -18 -85 -27 -108 -34 -221 -29
-450 3 -129 10 -264 15 -300 15 -95 54 -256 78 -322 45 -122 69 -180 85 -208
5 -8 12 -22 15 -30 3 -8 10 -22 15 -30 5 -8 11 -21 14 -28 13 -32 17 -39 35
-67 11 -16 23 -37 27 -45 3 -8 19 -31 35 -51 15 -20 28 -40 28 -45 0 -4 12
-21 27 -36 l27 -28 1402 0 1402 0 41 55 c22 30 41 57 41 61 0 4 7 15 15 24 47
52 166 306 210 450 10 30 24 73 31 95 8 23 14 53 14 68 0 16 5 37 11 49 6 11
15 61 19 112 10 100 17 129 31 120 5 -3 9 82 9 201 0 119 -4 204 -9 201 -13
-8 -21 18 -27 88 -7 84 -43 246 -76 341 -5 17 -13 44 -17 60 -4 17 -12 39 -18
50 -9 19 -25 53 -60 135 -20 47 -59 122 -98 188 -72 124 -208 293 -332 413
-69 68 -264 219 -281 219 -5 0 -15 6 -21 14 -14 16 -253 136 -272 136 -6 0
-23 6 -37 14 -15 8 -54 21 -87 31 -33 9 -81 23 -106 31 -26 8 -62 14 -82 14
-55 0 -97 11 -97 26 0 11 -38 14 -205 14 -170 0 -205 -2 -205 -14z m124 -139
c17 -12 18 -32 17 -228 -1 -123 2 -227 8 -242 22 -56 78 -57 105 0 14 30 17
67 15 246 -1 194 0 212 17 224 10 7 25 11 34 7 8 -4 51 -10 95 -14 96 -9 218
-39 340 -84 52 -19 51 -28 -11 -174 -21 -50 -18 -79 12 -98 29 -19 72 -11 84
16 4 8 14 30 23 48 9 19 17 39 17 45 0 20 35 86 45 86 6 0 24 -9 40 -19 17
-10 47 -28 69 -40 96 -52 306 -229 306 -257 0 -7 -29 -45 -65 -85 -36 -39 -65
-81 -65 -92 0 -27 39 -66 65 -66 15 0 46 26 91 75 l69 76 53 -58 c28 -31 52
-61 52 -66 0 -5 13 -26 28 -46 16 -20 32 -43 35 -51 4 -8 16 -28 27 -45 33
-52 108 -209 110 -232 0 -1 -40 -20 -126 -59 -22 -11 -49 -30 -59 -43 -16 -22
-17 -26 -1 -57 13 -28 21 -34 47 -34 17 0 43 6 57 13 15 8 42 21 60 30 48 24
79 22 87 -5 3 -13 12 -45 20 -73 22 -78 36 -144 45 -215 5 -36 12 -90 16 -120
4 -30 7 -66 8 -80 l1 -25 -215 -5 c-248 -6 -260 -9 -260 -75 0 -66 12 -69 260
-75 l215 -5 -1 -25 c-1 -14 -4 -50 -8 -80 -4 -30 -11 -84 -16 -120 -20 -154
-75 -340 -101 -340 -6 0 -23 6 -37 14 -101 54 -139 64 -173 46 -28 -16 -26
-80 4 -100 42 -27 87 -50 99 -50 7 -1 26 -11 42 -24 l29 -24 -39 -78 c-21 -44
-50 -97 -64 -119 -44 -70 -49 -80 -59 -102 -6 -13 -16 -24 -23 -24 -62 -8
-2659 -5 -2678 2 -14 5 -30 18 -35 29 -6 11 -30 52 -55 92 -61 100 -122 227
-115 238 3 6 14 10 24 10 10 0 24 7 31 15 7 8 19 15 26 15 26 0 91 41 105 66
11 22 11 29 -2 52 -25 46 -62 42 -171 -14 -33 -17 -68 -18 -72 -1 -2 6 -11 37
-19 67 -9 30 -23 80 -31 111 -9 31 -16 74 -16 97 0 22 -6 67 -14 99 -8 32 -14
78 -13 103 l2 45 210 5 c183 4 214 7 237 24 39 26 39 78 1 103 -23 15 -58 19
-238 23 l-210 5 2 55 c1 30 4 69 8 85 3 17 10 64 14 105 4 41 13 85 19 97 7
12 12 37 12 55 1 18 7 44 15 58 8 14 14 35 15 46 0 12 8 32 19 45 l19 23 38
-18 c22 -11 55 -27 75 -38 45 -22 68 -23 97 -2 48 34 22 89 -63 128 -22 10
-47 22 -55 27 -8 5 -23 12 -33 15 -9 4 -17 14 -17 23 0 16 42 101 94 191 14
25 29 52 33 60 11 24 124 173 145 192 18 16 22 14 90 -57 48 -51 78 -75 94
-75 22 0 64 42 64 65 0 6 -31 49 -70 94 -38 46 -70 87 -70 91 0 10 209 190
230 198 8 3 43 25 78 49 35 24 68 43 74 43 6 0 19 7 29 16 21 19 47 12 55 -13
11 -34 36 -98 56 -140 16 -36 24 -43 48 -43 41 0 64 37 56 87 -6 36 -28 98
-47 135 -16 31 -10 43 29 59 56 25 135 49 157 49 11 0 38 7 60 15 22 8 65 15
95 16 30 1 69 5 85 9 17 4 33 8 36 9 3 0 13 -5 23 -12z"/>
<path d="M2311 1970 c-45 -33 -84 -60 -87 -60 -3 0 -32 -20 -64 -45 -32 -25
-62 -45 -65 -45 -4 0 -24 -13 -45 -30 -21 -16 -41 -30 -45 -30 -5 0 -119 -65
-175 -100 -8 -5 -37 -21 -65 -35 -181 -94 -254 -172 -278 -300 -33 -182 37
-347 177 -414 59 -29 176 -31 232 -5 97 45 140 98 209 259 8 19 22 51 30 70 9
19 23 52 32 72 9 21 20 45 25 53 4 8 11 22 14 30 28 75 190 397 205 406 5 3 9
13 9 23 0 10 7 24 15 31 8 7 15 20 15 30 0 10 7 23 15 30 36 30 -1 120 -50
120 -13 0 -59 -27 -104 -60z m-101 -257 c0 -4 -27 -61 -59 -128 -78 -158 -121
-252 -121 -268 0 -6 -7 -21 -15 -31 -8 -11 -15 -27 -15 -35 0 -29 -61 -139
-97 -175 -35 -35 -39 -36 -110 -36 -64 0 -79 3 -108 26 -52 39 -75 93 -75 174
0 50 6 80 20 108 30 57 45 70 155 127 55 28 70 37 133 78 24 15 47 27 52 27 5
0 37 19 72 42 83 56 100 66 121 74 9 3 17 10 17 15 0 5 7 9 15 9 8 0 15 -3 15
-7z"/>
</g>
</svg>
