<?xml version="1.0" standalone="no"?>
<!DOCTYPE svg PUBLIC "-//W3C//DTD SVG 20010904//EN"
 "http://www.w3.org/TR/2001/REC-SVG-20010904/DTD/svg10.dtd">
<svg version="1.0" xmlns="http://www.w3.org/2000/svg"
 width="372.000000pt" height="363.000000pt" viewBox="0 0 372.000000 363.000000"
 preserveAspectRatio="xMidYMid meet">
<metadata>
Created by potrace 1.10, written by Peter Selinger 2001-2011
</metadata>
<g transform="translate(0.000000,363.000000) scale(0.100000,-0.100000)"
  stroke="none">
<path d="M535 3615 c-6 -8 -30 -19 -55 -24 -45 -9 -100 -27 -131 -41 -94 -46
-135 -75 -205 -144 -111 -112 -144 -187 -144 -331 0 -90 8 -127 41 -200 32
-72 124 -167 214 -222 20 -12 61 -33 162 -81 67 -32 105 -75 142 -159 17 -37
90 -103 137 -124 25 -10 63 -19 85 -19 31 0 42 -5 49 -22 6 -13 26 -50 45 -83
19 -33 40 -69 45 -80 6 -11 19 -33 30 -50 11 -16 24 -39 29 -50 5 -11 21 -37
35 -58 14 -21 26 -44 26 -52 0 -8 5 -17 11 -20 5 -4 14 -17 20 -28 5 -12 15
-31 21 -42 27 -41 63 -101 84 -140 11 -22 31 -56 42 -75 12 -19 26 -44 32 -55
6 -11 26 -47 45 -80 19 -33 40 -69 45 -80 6 -11 19 -33 29 -50 11 -16 32 -52
47 -80 14 -27 35 -62 45 -77 26 -36 24 -44 -18 -72 -91 -57 -114 -134 -68
-230 16 -34 16 -36 -9 -73 -34 -49 -36 -129 -5 -180 l21 -34 -33 -34 c-34 -35
-57 -82 -58 -122 -1 -12 10 -47 23 -78 19 -41 22 -57 13 -62 -25 -16 -47 -63
-47 -99 0 -63 56 -130 125 -149 17 -5 494 -11 1060 -12 1099 -4 1075 -5 1142
45 51 37 73 84 73 152 0 167 -185 307 -395 298 l-70 -3 -8 50 c-5 28 -11 60
-13 71 -7 37 -89 118 -151 149 -46 24 -75 31 -142 35 l-84 5 -19 70 c-31 113
-102 174 -232 200 -33 7 -67 10 -77 8 -30 -8 -55 14 -97 85 -62 104 -133 145
-247 142 -95 -3 -91 -4 -109 33 -9 17 -26 46 -36 62 -11 17 -24 39 -30 50 -6
11 -26 47 -45 80 -19 33 -40 69 -45 80 -6 11 -19 34 -30 50 -11 17 -25 41 -31
55 -5 14 -21 39 -35 57 -13 17 -24 38 -24 47 0 8 -5 18 -11 21 -5 4 -14 17
-20 28 -9 23 -14 31 -61 105 -16 24 -28 47 -28 52 0 5 -12 26 -26 47 -14 21
-30 47 -35 58 -5 11 -18 34 -29 50 -11 17 -26 44 -34 60 -8 17 -29 53 -45 80
-17 28 -35 60 -40 72 -5 11 -15 24 -20 28 -19 11 -12 46 19 85 39 49 41 108 5
171 -14 24 -28 51 -31 59 -4 8 -14 23 -23 34 -22 25 -21 138 2 194 32 80 16
222 -36 315 -53 96 -155 190 -262 241 -112 54 -137 64 -192 71 -36 5 -53 12
-53 21 0 21 -291 20 -305 -1z m316 -135 c45 -10 87 -24 93 -30 5 -5 16 -10 23
-10 40 0 223 -150 223 -184 0 -5 6 -17 14 -25 7 -9 21 -46 30 -84 17 -67 17
-69 -8 -168 -14 -55 -29 -107 -34 -116 -9 -15 -49 -33 -117 -53 -16 -5 -115
-39 -220 -75 -307 -107 -271 -99 -335 -69 -30 15 -71 34 -90 42 -95 43 -203
134 -237 198 -33 65 -55 148 -49 189 8 46 25 103 37 125 5 8 13 25 19 37 12
30 111 125 147 143 15 8 34 19 42 24 21 16 72 34 186 66 56 15 191 11 276 -10z
m405 -787 c11 -16 28 -45 39 -65 l20 -38 -22 -22 c-21 -20 -63 -40 -128 -58
-33 -9 -89 -28 -120 -41 -62 -26 -234 -79 -254 -79 -24 0 -81 44 -81 62 0 5
-10 22 -22 39 -19 26 -20 31 -7 44 12 12 244 96 344 125 42 12 95 30 130 46
49 21 79 17 101 -13z m6 -310 c8 -10 18 -25 22 -33 3 -8 15 -28 26 -45 11 -16
26 -43 34 -60 8 -16 29 -52 45 -80 17 -27 35 -59 41 -70 11 -21 18 -34 63
-103 15 -24 27 -49 27 -57 0 -8 5 -17 11 -20 5 -4 14 -17 20 -28 5 -12 15 -31
21 -42 27 -41 63 -102 86 -145 40 -73 52 -93 72 -125 11 -16 26 -43 34 -60 8
-16 29 -52 45 -80 17 -27 35 -59 41 -70 6 -11 19 -33 30 -50 30 -46 33 -56 23
-66 -14 -14 -232 -88 -260 -89 -16 0 -27 10 -37 33 -8 17 -29 55 -45 82 -17
28 -35 59 -41 70 -5 11 -14 27 -20 35 -14 22 -95 163 -103 180 -4 8 -16 29
-27 45 -11 17 -26 44 -34 60 -8 17 -29 53 -45 80 -17 28 -35 59 -41 70 -11 21
-18 34 -62 103 -16 24 -28 49 -28 57 0 8 -5 17 -11 20 -5 4 -15 17 -20 28 -5
12 -18 36 -29 52 -11 17 -24 39 -30 50 -12 23 -48 87 -74 131 -19 32 -16 62 6
68 7 2 29 9 48 15 19 7 49 17 65 21 17 5 48 15 70 24 52 20 59 19 77 -1z m956
-1217 c12 -13 22 -28 22 -34 0 -5 7 -15 15 -22 8 -7 15 -25 15 -40 0 -25 -4
-28 -37 -32 -36 -5 -77 -14 -188 -43 -79 -21 -147 -37 -190 -45 -38 -7 -61
-12 -195 -46 -108 -26 -128 -27 -140 -3 -20 35 -4 68 43 88 94 42 118 51 132
51 8 0 29 6 47 14 40 16 93 35 133 46 17 5 80 27 140 49 131 47 171 50 203 17z
m382 -237 c34 -26 47 -74 34 -122 -9 -29 -14 -32 -79 -44 -39 -7 -99 -17 -135
-22 -70 -10 -159 -24 -285 -46 -44 -8 -98 -17 -120 -19 -73 -9 -179 -27 -250
-42 -39 -8 -105 -15 -148 -16 -68 -1 -80 1 -102 22 -56 53 -8 109 110 130 22
4 63 13 90 20 28 6 75 18 105 25 30 8 89 21 130 31 73 16 127 29 220 54 25 6
68 15 97 20 28 4 57 11 63 15 22 14 115 24 177 20 45 -3 72 -11 93 -26z m376
-278 c58 -41 76 -73 72 -129 l-3 -47 -55 -5 c-30 -3 -60 -9 -67 -13 -6 -4 -87
-12 -180 -17 -92 -5 -181 -11 -198 -14 -16 -2 -68 -7 -115 -10 -136 -10 -193
-15 -220 -21 -23 -5 -72 -9 -235 -20 -33 -2 -87 -8 -120 -14 -33 -5 -101 -10
-151 -10 -50 -1 -114 -5 -143 -11 -64 -12 -97 1 -106 42 -9 37 16 76 53 83 15
4 47 11 72 16 25 6 74 14 110 19 73 9 169 25 280 45 93 17 193 33 290 45 41 5
85 14 98 20 13 5 44 10 70 10 26 0 72 7 102 15 30 8 73 15 95 16 22 0 58 6 80
14 22 7 83 13 136 14 91 1 98 -1 135 -28z m411 -291 c64 -23 97 -49 124 -102
25 -50 24 -81 -5 -115 l-24 -28 -987 -3 c-894 -2 -990 -1 -1021 14 -24 12 -34
23 -34 40 0 12 4 25 9 28 13 8 135 26 216 31 120 9 189 15 220 20 17 3 93 10
170 15 77 5 156 11 175 14 19 3 104 10 189 15 84 5 160 12 169 16 9 3 57 8
107 11 84 4 174 13 220 20 11 2 67 7 125 10 58 3 134 12 170 19 93 18 113 17
177 -5z"/>
<path d="M450 3333 c-86 -39 -104 -50 -130 -83 -47 -60 -63 -99 -57 -144 12
-86 115 -105 156 -28 6 12 9 26 7 31 -3 5 1 25 9 44 16 40 69 77 109 77 35 0
83 25 96 50 8 15 7 26 -6 45 -15 23 -22 25 -83 24 -37 0 -81 -7 -101 -16z"/>
</g>
</svg>
