<?xml version="1.0" standalone="no"?>
<!DOCTYPE svg PUBLIC "-//W3C//DTD SVG 20010904//EN"
 "http://www.w3.org/TR/2001/REC-SVG-20010904/DTD/svg10.dtd">
<svg version="1.0" xmlns="http://www.w3.org/2000/svg"
 width="108.000000pt" height="105.000000pt" viewBox="0 0 108.000000 105.000000"
 preserveAspectRatio="xMidYMid meet">
<metadata>
Created by potrace 1.10, written by Peter Selinger 2001-2011
</metadata>
<g transform="translate(0.000000,105.000000) scale(0.100000,-0.100000)"
 stroke="none">
<path d="M687 942 c-32 -32 -37 -44 -37 -83 0 -39 5 -50 38 -82 l38 -37 112 0
112 0 0 120 0 120 -113 0 -113 0 -37 -38z m228 -82 l0 -85 -78 -3 c-78 -3 -78
-3 -117 35 -22 20 -40 44 -40 52 0 8 17 32 37 53 l38 39 80 -3 80 -3 0 -85z"/>
<path d="M744 876 c-10 -26 4 -48 28 -44 17 2 23 10 23 28 0 18 -6 26 -23 28
-13 2 -25 -3 -28 -12z"/>
<path d="M222 837 c-12 -13 -22 -28 -22 -34 0 -6 -7 -16 -15 -23 -8 -7 -15
-29 -15 -49 0 -20 -7 -45 -15 -55 -8 -11 -15 -34 -15 -51 0 -17 -7 -40 -15
-51 -12 -15 -14 -62 -15 -240 0 -222 0 -222 22 -228 30 -8 88 -8 127 0 27 6
31 11 31 38 0 54 7 56 211 56 202 0 204 -1 211 -55 3 -26 8 -31 43 -37 46 -8
122 0 131 14 3 5 5 105 5 221 -2 174 -4 213 -16 220 -9 4 -15 22 -15 41 0 19
-7 39 -15 46 -8 7 -15 23 -15 36 0 15 -6 24 -15 24 -11 0 -15 -11 -15 -39 0
-22 6 -44 15 -51 8 -7 15 -27 15 -45 0 -18 7 -38 15 -45 13 -11 15 -42 13
-199 l-3 -186 -55 0 -55 0 -5 40 -5 40 -237 3 -237 2 -3 -42 -3 -43 -55 0 -55
0 -3 186 c-2 157 0 188 13 199 8 7 15 27 15 45 0 18 7 38 15 45 9 8 15 30 15
60 0 30 6 52 15 60 8 7 15 20 15 29 0 10 10 27 23 39 22 21 33 22 180 22 133
0 157 2 157 15 0 13 -26 15 -173 15 -168 0 -174 -1 -195 -23z"/>
<path d="M267 763 c-4 -3 -7 -28 -7 -53 0 -30 -6 -52 -15 -60 -9 -7 -15 -29
-15 -51 l0 -39 270 0 270 0 0 32 c0 43 -29 118 -46 118 -19 0 -18 -74 1 -90 8
-7 12 -16 9 -21 -7 -12 -461 -12 -468 0 -3 5 1 14 9 21 9 7 15 29 15 54 0 23
5 47 12 54 8 8 63 12 180 12 143 0 168 2 168 15 0 13 -28 15 -188 15 -104 0
-192 -3 -195 -7z"/>
<path d="M229 507 c-40 -15 -58 -76 -36 -122 12 -26 24 -35 52 -41 49 -9 103
3 115 26 26 48 -1 121 -51 139 -37 13 -45 13 -80 -2z m86 -82 c0 -36 -3 -40
-28 -43 -36 -4 -57 13 -57 48 0 36 8 42 50 38 34 -3 35 -4 35 -43z"/>
<path d="M685 506 c-41 -18 -64 -81 -46 -124 17 -41 76 -59 125 -38 28 12 36
22 42 50 3 20 3 51 0 69 -5 29 -12 36 -45 45 -45 14 -39 14 -76 -2z m83 -67
c4 -34 -23 -61 -57 -57 -20 2 -27 9 -29 31 -6 47 4 59 45 55 33 -3 38 -7 41
-29z"/>
</g>
</svg>
