<?xml version="1.0" standalone="no"?>
<!DOCTYPE svg PUBLIC "-//W3C//DTD SVG 20010904//EN"
 "http://www.w3.org/TR/2001/REC-SVG-20010904/DTD/svg10.dtd">
<svg version="1.0" xmlns="http://www.w3.org/2000/svg"
 width="543.000000pt" height="900.000000pt" viewBox="0 0 543.000000 900.000000"
 preserveAspectRatio="xMidYMid meet">
<metadata>
Created by potrace 1.10, written by Peter Selinger 2001-2011
</metadata>
<g transform="translate(0.000000,900.000000) scale(0.100000,-0.100000)"
 stroke="none">
<path d="M2835 8973 c3 -16 20 -49 36 -76 16 -26 29 -51 29 -55 0 -4 18 -41
40 -82 22 -41 43 -82 46 -90 6 -15 68 -141 84 -170 4 -8 38 -76 75 -150 37
-74 71 -142 75 -150 5 -8 38 -76 75 -150 37 -74 71 -142 75 -150 4 -8 25 -49
45 -90 20 -41 41 -82 46 -90 4 -8 38 -76 74 -150 37 -74 70 -142 75 -150 5 -8
38 -76 75 -150 37 -74 71 -142 76 -150 4 -8 24 -49 44 -90 20 -41 40 -82 45
-90 5 -8 39 -76 75 -150 37 -74 70 -142 75 -150 5 -8 147 -292 315 -630 169
-338 311 -622 315 -630 4 -8 78 -154 162 -325 92 -185 160 -310 169 -310 11 0
170 306 236 455 8 19 19 42 24 50 4 8 18 35 30 60 12 25 25 52 29 60 17 30 78
155 84 170 14 34 44 75 55 73 7 -2 11 13 11 37 0 27 -4 40 -13 40 -8 0 -31 35
-51 78 -20 42 -41 84 -46 92 -5 8 -19 35 -30 60 -11 25 -25 52 -30 60 -22 36
-80 162 -80 174 0 8 -7 19 -15 26 -8 7 -15 18 -15 24 0 6 -31 72 -70 146 -38
74 -73 142 -76 150 -6 16 -70 145 -84 170 -5 8 -18 34 -29 57 -11 23 -24 50
-30 60 -5 10 -26 52 -46 93 -20 41 -40 82 -45 90 -4 8 -25 49 -45 90 -20 41
-41 82 -46 90 -5 8 -18 35 -29 60 -12 25 -25 52 -30 60 -5 8 -27 51 -48 95
-22 44 -56 113 -76 153 -20 39 -52 105 -72 145 -20 39 -39 79 -44 87 -5 8 -18
34 -29 57 -11 23 -25 52 -32 65 -16 31 -18 34 -94 188 -36 74 -70 142 -74 150
-5 8 -59 116 -121 240 -61 124 -115 232 -120 240 -41 74 -140 281 -140 294 0
15 -44 16 -471 16 l-471 0 7 -27z"/>
<path d="M2325 7086 c-17 -13 -17 -16 17 -82 20 -38 66 -130 102 -204 37 -74
70 -142 75 -150 5 -8 59 -116 120 -240 62 -124 116 -232 120 -240 5 -8 39 -76
76 -150 36 -74 70 -142 74 -150 21 -35 231 -459 231 -464 0 -4 5 -12 10 -19 6
-7 60 -113 121 -237 60 -124 114 -232 119 -240 5 -8 38 -76 74 -150 37 -74 70
-142 75 -150 19 -31 211 -420 211 -427 0 -4 -325 -657 -722 -1451 -586 -1171
-719 -1445 -708 -1453 9 -5 206 -9 457 -9 379 0 444 2 457 15 24 24 1446 2876
1445 2899 0 12 -13 46 -29 76 -16 30 -38 75 -49 100 -11 25 -25 52 -30 60 -6
8 -24 44 -41 80 -17 36 -37 76 -44 90 -7 14 -30 59 -50 100 -21 41 -41 82 -46
90 -5 8 -18 35 -30 60 -11 25 -24 52 -29 60 -5 8 -26 49 -46 90 -20 41 -40 82
-45 90 -4 8 -25 49 -45 90 -21 41 -54 109 -75 150 -21 41 -54 109 -75 150 -20
41 -40 82 -45 90 -9 13 -17 31 -51 105 -5 11 -13 27 -18 35 -6 8 -26 49 -46
90 -21 41 -54 109 -75 150 -21 41 -55 109 -75 150 -21 41 -44 86 -51 100 -7
14 -27 54 -44 90 -17 36 -35 72 -41 80 -5 8 -18 35 -29 60 -12 25 -25 52 -30
60 -5 8 -27 51 -48 95 -79 159 -110 221 -148 298 -22 42 -53 106 -71 141 -18
36 -41 70 -52 75 -13 7 -165 11 -448 11 -346 0 -433 -3 -448 -14z"/>
<path d="M2728 4192 l-447 -2 -147 -293 c-80 -160 -150 -299 -155 -307 -4 -8
-199 -398 -433 -866 -233 -468 -429 -860 -434 -870 -6 -10 -181 -361 -388
-779 -207 -418 -381 -767 -386 -775 -4 -8 -11 -22 -14 -30 -3 -8 -10 -22 -15
-30 -5 -8 -12 -22 -15 -30 -11 -27 -45 -94 -70 -139 -13 -24 -24 -50 -24 -58
0 -11 82 -13 464 -13 433 0 464 1 470 17 3 10 10 25 15 33 9 14 28 51 126 250
21 41 54 109 75 150 22 41 53 104 70 140 17 36 36 75 43 88 7 13 43 85 80 160
38 75 72 144 77 152 5 8 25 49 45 90 20 41 40 82 45 90 5 8 18 35 30 60 11 25
24 52 29 60 5 8 26 49 46 90 20 41 41 82 45 90 5 8 38 76 75 150 36 74 70 142
75 150 4 8 25 49 45 90 20 41 40 82 45 90 5 8 18 35 30 60 11 25 24 52 29 60
5 8 26 49 46 90 20 41 41 82 45 90 4 8 38 76 75 150 37 74 71 142 75 150 5 8
58 116 120 240 61 124 115 232 120 240 4 8 38 76 75 150 37 74 71 142 75 150
5 8 59 116 120 240 61 124 115 232 120 240 27 48 180 357 180 363 0 19 -72 22
-482 19z"/>
</g>
</svg>
