<?xml version="1.0" standalone="no"?>
<!DOCTYPE svg PUBLIC "-//W3C//DTD SVG 20010904//EN"
 "http://www.w3.org/TR/2001/REC-SVG-20010904/DTD/svg10.dtd">
<svg version="1.0" xmlns="http://www.w3.org/2000/svg"
 width="291.000000pt" height="291.000000pt" viewBox="0 0 291.000000 291.000000"
 preserveAspectRatio="xMidYMid meet">
<metadata>
Created by potrace 1.10, written by Peter Selinger 2001-2011
</metadata>
<g transform="translate(0.000000,291.000000) scale(0.100000,-0.100000)"
  stroke="none">
<path d="M1279 2720 c-63 -4 -121 -10 -127 -14 -7 -4 -33 -11 -60 -16 -92 -16
-266 -89 -360 -152 -24 -15 -45 -28 -48 -28 -20 0 -183 -146 -263 -235 -131
-147 -245 -381 -290 -595 -21 -103 -21 -397 0 -500 55 -264 194 -510 395 -699
177 -167 369 -266 629 -326 97 -23 441 -23 504 0 24 8 53 15 65 15 11 0 53 12
91 26 39 14 80 28 92 31 12 3 28 11 34 19 6 8 17 14 23 14 47 0 291 171 370
259 11 13 38 40 58 62 20 21 44 52 53 68 8 17 19 31 24 31 5 0 12 8 15 17 7
21 22 46 52 88 28 40 61 115 108 243 67 184 82 471 34 672 -6 25 -14 65 -19
90 -5 24 -14 49 -19 54 -6 6 -10 18 -10 28 0 18 -59 146 -103 225 -71 125
-241 312 -339 372 -21 12 -38 26 -38 31 0 4 -8 10 -17 14 -10 3 -31 15 -48 25
-68 44 -215 111 -295 134 -169 49 -278 59 -511 47z m401 -105 c8 -5 30 -12 49
-16 76 -15 213 -73 286 -120 17 -10 37 -22 45 -26 59 -27 232 -183 297 -268
58 -76 123 -176 123 -189 0 -8 7 -19 15 -26 8 -7 15 -20 15 -29 0 -9 7 -25 15
-35 8 -11 15 -29 15 -40 0 -12 7 -30 15 -40 8 -11 15 -31 15 -44 0 -13 5 -33
12 -45 17 -32 41 -211 41 -307 0 -127 -36 -327 -69 -392 -8 -14 -14 -34 -14
-45 0 -10 -7 -27 -15 -37 -8 -11 -15 -27 -15 -37 0 -9 -7 -22 -15 -29 -8 -7
-15 -18 -15 -26 0 -13 -67 -115 -124 -189 -66 -86 -238 -242 -296 -268 -8 -4
-28 -16 -45 -27 -16 -11 -37 -23 -45 -26 -8 -4 -38 -17 -66 -30 -148 -68 -333
-106 -504 -106 -52 0 -238 20 -248 26 -6 3 -30 10 -54 15 -41 9 -111 32 -153
50 -11 5 -27 12 -35 15 -8 3 -22 10 -30 15 -8 5 -22 12 -30 15 -8 4 -28 15
-45 26 -16 11 -37 23 -45 27 -8 3 -41 27 -74 51 -250 191 -401 431 -471 750
-22 100 -22 344 0 444 33 148 91 301 158 413 105 175 325 372 512 459 22 10
53 25 68 32 16 8 36 14 46 14 9 0 26 7 37 15 10 8 32 15 47 15 15 0 44 7 64
15 19 8 63 16 97 16 33 1 74 4 90 8 36 7 328 -13 346 -24z"/>
<path d="M1370 2476 c-3 -3 -26 -8 -50 -11 -183 -22 -228 -34 -375 -106 -99
-48 -169 -98 -251 -176 -65 -63 -151 -167 -167 -203 -4 -8 -16 -28 -27 -45
-11 -16 -23 -37 -26 -45 -3 -8 -12 -28 -19 -45 -40 -91 -65 -181 -75 -270 -11
-101 -3 -325 15 -374 8 -24 15 -52 15 -62 0 -20 14 -53 67 -164 41 -85 46 -94
101 -168 82 -109 237 -243 337 -291 22 -10 47 -23 55 -28 16 -9 24 -12 80 -33
101 -37 139 -45 270 -60 81 -9 140 -7 250 9 223 33 457 158 601 321 58 66 143
184 155 215 3 8 10 22 15 30 5 8 12 22 15 30 3 8 11 29 18 45 17 39 41 121 60
211 22 100 20 250 -4 365 -29 136 -44 183 -82 249 -4 8 -11 22 -14 30 -12 31
-15 36 -34 65 -11 17 -23 38 -26 48 -4 9 -10 17 -15 17 -5 0 -15 12 -23 28
-36 67 -184 199 -301 268 -120 70 -216 106 -335 125 -36 5 -76 12 -90 14 -58
11 -135 17 -140 11z m205 -109 c50 -9 115 -25 145 -37 30 -12 64 -24 75 -28
11 -3 38 -17 60 -31 22 -14 54 -33 70 -42 86 -47 230 -192 292 -294 27 -45 74
-148 71 -157 -3 -8 -193 -74 -349 -121 -68 -21 -185 -22 -219 -2 -14 8 -35 14
-48 15 -13 0 -33 5 -45 12 -43 24 -153 47 -221 48 -65 0 -143 -17 -211 -45
-83 -35 -134 -45 -227 -45 -57 0 -113 6 -135 14 -42 15 -107 33 -168 46 -48
11 -147 38 -151 43 -9 9 64 167 92 198 8 8 14 19 14 24 0 4 15 26 34 49 100
121 212 212 326 266 25 12 53 25 62 30 31 17 137 50 160 50 13 1 46 7 73 15
59 17 171 14 300 -8z m768 -749 l15 -58 -33 -20 c-18 -11 -37 -20 -44 -20 -11
0 -134 -54 -161 -71 -8 -5 -24 -14 -35 -19 -11 -6 -33 -19 -50 -30 -16 -11
-38 -23 -47 -26 -10 -4 -18 -10 -18 -13 0 -4 -21 -23 -47 -42 -92 -66 -190
-174 -279 -309 -80 -121 -158 -334 -183 -495 -6 -37 -8 -40 -42 -43 -47 -4
-66 16 -73 76 -4 26 -11 65 -17 87 -5 22 -14 56 -19 75 -9 38 -35 110 -49 138
-17 33 -51 100 -64 123 -61 114 -204 275 -326 368 -42 32 -83 61 -91 64 -8 4
-28 16 -45 27 -16 11 -37 23 -45 26 -8 4 -43 19 -78 35 -34 16 -67 29 -73 29
-5 0 -23 7 -39 15 -25 13 -30 22 -30 53 0 70 14 73 150 35 30 -8 78 -21 105
-28 28 -8 75 -21 106 -29 111 -31 256 -20 374 29 90 38 135 46 222 43 82 -4
113 -11 188 -43 17 -8 44 -16 60 -20 17 -3 48 -10 70 -15 82 -19 156 -10 280
32 17 5 44 13 60 18 17 5 46 14 65 21 19 6 51 17 70 24 74 26 95 32 102 26 3
-3 13 -32 21 -63z m-1833 -181 c53 -20 91 -37 130 -59 19 -10 49 -26 65 -34
56 -28 77 -42 124 -80 88 -74 241 -237 241 -259 0 -4 12 -24 28 -44 41 -54
101 -186 121 -266 4 -17 12 -39 18 -50 6 -11 13 -48 16 -82 l7 -63 -39 0 c-21
0 -69 12 -107 26 -38 14 -78 28 -89 31 -29 9 -164 91 -210 128 -77 63 -142
133 -190 205 -108 164 -145 271 -169 491 -2 23 8 69 16 69 2 0 19 -6 38 -13z
m1850 -57 c0 -152 -77 -368 -184 -515 -67 -92 -151 -168 -274 -247 -84 -54
-237 -114 -307 -120 -37 -3 -40 -1 -39 22 1 27 19 106 36 155 5 17 13 44 17
60 13 53 94 208 138 267 24 31 43 61 43 66 0 17 229 226 269 245 9 4 39 21 66
37 28 17 61 35 75 41 66 29 96 42 110 50 8 4 23 8 33 8 15 1 17 -9 17 -69z"/>
<path d="M1370 1550 c-77 -6 -130 -39 -179 -110 -28 -42 -31 -52 -32 -132 -1
-95 9 -124 66 -186 38 -42 124 -82 179 -82 65 0 135 30 185 81 51 50 81 120
81 185 0 55 -40 142 -82 179 -67 61 -110 73 -218 65z m135 -106 c89 -58 101
-188 25 -264 -36 -36 -71 -50 -123 -50 -105 0 -174 81 -164 192 4 51 10 63 44
97 21 22 50 41 63 44 44 9 128 -1 155 -19z"/>
</g>
</svg>
