<?xml version="1.0" standalone="no"?>
<!DOCTYPE svg PUBLIC "-//W3C//DTD SVG 20010904//EN"
 "http://www.w3.org/TR/2001/REC-SVG-20010904/DTD/svg10.dtd">
<svg version="1.0" xmlns="http://www.w3.org/2000/svg"
 width="216.000000pt" height="240.000000pt" viewBox="0 0 216.000000 240.000000"
 preserveAspectRatio="xMidYMid meet">
<metadata>
Created by potrace 1.10, written by Peter Selinger 2001-2011
</metadata>
<g transform="translate(0.000000,240.000000) scale(0.100000,-0.100000)"
  stroke="none">
<path d="M132 2277 l-22 -23 0 -1065 0 -1066 23 -21 23 -22 930 0 931 0 21 23
22 23 0 1065 0 1066 -23 21 -23 22 -930 0 -931 0 -21 -23z m1838 -1087 l0
-1020 -885 0 -885 0 0 1020 0 1020 885 0 885 0 0 -1020z"/>
<path d="M1070 1983 c-343 -2 -628 -7 -633 -12 -11 -11 -11 -531 1 -543 11
-11 1283 -11 1294 0 5 5 9 128 9 273 0 238 -2 265 -18 276 -9 7 -19 12 -22 11
-3 -2 -287 -4 -631 -5z m602 -70 c16 -15 18 -35 18 -211 0 -168 -2 -198 -17
-214 -15 -17 -47 -18 -586 -18 -517 0 -572 2 -589 17 -16 15 -18 35 -18 211 0
168 2 198 17 214 15 17 47 18 586 18 517 0 572 -2 589 -17z"/>
<path d="M540 1155 c0 -11 18 -15 83 -17 l82 -3 3 -83 c2 -60 6 -82 15 -79 8
2 13 34 15 90 3 86 2 87 -23 97 -15 6 -60 10 -101 10 -58 0 -74 -3 -74 -15z"/>
<path d="M997 1163 c-18 -17 -1 -22 76 -25 l82 -3 3 -82 c2 -65 6 -83 17 -83
12 0 15 18 15 94 0 89 -1 94 -22 100 -31 8 -163 8 -171 -1z"/>
<path d="M1463 1163 c-32 -12 -6 -22 65 -25 l77 -3 5 -78 c3 -42 10 -77 15
-77 16 0 19 172 3 182 -14 8 -145 10 -165 1z"/>
<path d="M535 610 c-9 -15 10 -19 95 -22 l75 -3 3 -83 c2 -60 6 -82 15 -79 8
2 12 33 12 98 l0 94 -97 3 c-59 2 -99 -1 -103 -8z"/>
<path d="M990 605 c0 -12 15 -15 85 -15 l85 0 0 -85 c0 -70 3 -85 15 -85 13 0
15 15 13 98 l-3 97 -97 3 c-83 2 -98 0 -98 -13z"/>
<path d="M1446 611 c-9 -14 20 -21 94 -21 l69 0 3 -82 c4 -115 23 -103 23 15
l0 92 -92 3 c-50 1 -94 -1 -97 -7z"/>
</g>
</svg>
