<?xml version="1.0" standalone="no"?>
<!DOCTYPE svg PUBLIC "-//W3C//DTD SVG 20010904//EN"
 "http://www.w3.org/TR/2001/REC-SVG-20010904/DTD/svg10.dtd">
<svg version="1.0" xmlns="http://www.w3.org/2000/svg"
 width="279.000000pt" height="207.000000pt" viewBox="0 0 279.000000 207.000000"
 preserveAspectRatio="xMidYMid meet">
<metadata>
Created by potrace 1.10, written by Peter Selinger 2001-2011
</metadata>
<g transform="translate(0.000000,207.000000) scale(0.100000,-0.100000)"
  stroke="none">
<path d="M803 2058 c1 -8 -20 -17 -53 -24 -117 -25 -196 -75 -228 -147 -21
-45 -52 -163 -52 -196 0 -35 -39 -89 -68 -95 -15 -3 -73 -4 -130 -2 -149 4
-200 -6 -239 -51 -30 -33 -33 -42 -33 -102 0 -67 25 -131 52 -131 6 0 19 -7
29 -16 11 -10 38 -15 78 -16 34 0 64 -5 68 -10 3 -6 -9 -30 -26 -54 -17 -25
-31 -50 -31 -56 0 -6 -6 -19 -14 -27 -8 -9 -21 -38 -30 -65 -25 -74 -25 -565
0 -604 33 -53 127 -112 178 -112 11 0 31 -3 44 -6 23 -7 23 -7 2 -21 -16 -11
-20 -25 -20 -68 0 -125 39 -212 108 -241 45 -19 188 -19 234 0 41 17 86 61 94
90 3 12 6 71 7 131 l2 110 595 0 595 0 2 -90 c1 -50 2 -106 3 -125 0 -25 9
-45 33 -70 46 -50 76 -60 177 -60 50 0 101 6 117 13 47 21 93 78 94 117 3 127
0 181 -10 194 -14 16 4 26 49 26 66 0 181 85 196 144 10 43 -1 549 -13 576 -6
14 -14 32 -17 40 -4 8 -15 29 -26 45 -11 17 -23 37 -26 45 -4 8 -14 23 -22 32
-27 32 -9 45 63 46 45 1 73 6 85 17 9 8 21 15 27 15 26 0 53 67 53 131 0 58
-3 67 -33 99 -43 47 -85 56 -242 54 -71 -1 -139 2 -150 6 -29 11 -67 110 -82
215 -16 107 -131 202 -266 219 -39 5 -57 12 -57 22 0 12 -81 14 -560 14 -435
0 -559 -3 -557 -12z m1162 -110 c92 -24 142 -55 167 -103 18 -34 48 -133 48
-158 0 -9 6 -31 14 -49 8 -18 22 -53 31 -78 9 -25 27 -65 39 -90 11 -25 22
-48 24 -52 5 -10 -48 -17 -163 -23 -55 -3 -116 -7 -135 -9 -101 -13 -207 -16
-660 -16 -290 0 -524 5 -565 11 -38 6 -123 13 -187 17 -64 4 -120 10 -123 13
-5 5 9 36 62 141 7 14 13 34 13 45 0 10 7 27 15 37 8 11 15 31 16 45 0 40 32
153 49 177 23 33 105 84 136 85 16 0 45 7 64 14 55 21 1072 15 1155 -7z
m-1587 -452 c6 -6 -28 -78 -52 -108 -20 -26 -199 -28 -227 -2 -29 26 -26 90 5
106 25 13 261 16 274 4z m2257 0 c22 -6 25 -12 25 -55 0 -30 -5 -53 -15 -61
-9 -8 -49 -11 -116 -11 -92 1 -103 3 -120 24 -10 12 -18 27 -19 33 0 6 -7 17
-15 24 -17 14 -20 47 -5 52 17 5 239 0 265 -6z m-2020 -191 c44 -2 112 -9 150
-15 76 -11 1149 -15 1167 -4 11 7 53 12 178 19 47 2 117 7 155 9 39 3 75 2 81
-2 19 -13 123 -157 156 -217 l33 -60 3 -263 c3 -187 0 -267 -8 -277 -6 -7 -29
-23 -51 -34 -39 -21 -49 -21 -1117 -21 l-1077 1 -40 27 -40 28 -3 264 -2 264
29 58 c28 55 143 215 165 230 5 3 39 5 75 2 36 -2 102 -6 146 -9z m66 -967 c2
-7 3 -59 1 -116 l-3 -102 -39 -20 c-47 -24 -106 -26 -159 -4 -46 18 -54 38
-52 141 1 62 -1 74 -20 86 -19 14 -20 15 -2 20 10 3 75 5 144 6 94 1 128 -2
130 -11z m1638 6 c31 -7 32 -7 9 -18 -21 -11 -23 -20 -28 -111 l-5 -100 -35
-17 c-19 -10 -55 -18 -80 -18 -25 0 -61 8 -80 18 l-35 17 -5 105 c-3 58 -4
111 -2 118 4 13 201 18 261 6z"/>
<path d="M2324 875 c-13 -13 -24 -33 -24 -44 0 -34 -37 -44 -165 -46 -149 -2
-165 -7 -165 -46 0 -22 6 -32 26 -39 36 -14 239 -12 288 2 68 21 106 71 106
139 0 39 -3 48 -21 52 -14 4 -29 -2 -45 -18z"/>
<path d="M346 874 c-12 -31 6 -91 38 -125 42 -46 91 -59 224 -59 129 0 162 10
162 51 0 38 -31 46 -165 43 -113 -3 -165 7 -165 33 0 8 -7 27 -15 43 -12 23
-23 30 -44 30 -17 0 -31 -6 -35 -16z"/>
<path d="M948 770 c-17 -4 -24 -14 -26 -38 -3 -27 1 -34 23 -42 16 -6 183 -10
423 -10 344 0 401 2 420 16 25 17 29 46 9 62 -14 12 -804 22 -849 12z"/>
</g>
</svg>
