<?xml version="1.0" standalone="no"?>
<!DOCTYPE svg PUBLIC "-//W3C//DTD SVG 20010904//EN"
 "http://www.w3.org/TR/2001/REC-SVG-20010904/DTD/svg10.dtd">
<svg version="1.0" xmlns="http://www.w3.org/2000/svg"
 width="219.000000pt" height="207.000000pt" viewBox="0 0 219.000000 207.000000"
 preserveAspectRatio="xMidYMid meet">
<metadata>
Created by potrace 1.10, written by Peter Selinger 2001-2011
</metadata>
<g transform="translate(0.000000,207.000000) scale(0.100000,-0.100000)"
  stroke="none">
<path d="M1470 2056 c0 -15 -21 -26 -49 -26 -37 0 -178 -86 -236 -145 -37 -36
-81 -99 -102 -145 -20 -43 -25 -58 -54 -157 -11 -39 -9 -130 7 -244 6 -43 4
-48 -30 -83 -20 -20 -38 -36 -41 -36 -7 0 -313 309 -342 347 -17 21 -33 49
-36 63 -5 24 -14 50 -46 138 -16 41 -20 45 -175 122 -87 44 -170 80 -183 80
-18 0 -48 -23 -104 -79 -64 -65 -79 -85 -79 -110 0 -17 4 -39 9 -49 5 -9 38
-75 72 -145 35 -71 70 -133 77 -140 15 -12 63 -31 117 -47 105 -31 109 -34
288 -209 97 -96 177 -180 177 -187 0 -7 -126 -138 -279 -291 -176 -176 -287
-293 -300 -320 -32 -64 -30 -175 5 -236 25 -46 73 -89 128 -117 43 -22 161
-20 211 4 24 12 136 114 286 263 135 133 250 243 255 243 5 0 120 -111 254
-246 166 -166 259 -252 287 -265 52 -24 169 -26 199 -4 10 8 25 15 33 15 19 0
81 65 104 109 15 27 19 56 19 119 0 74 -3 87 -28 125 -15 23 -130 145 -256
270 -125 126 -228 233 -228 239 0 7 20 8 63 3 34 -5 82 -9 107 -8 91 1 224 33
252 61 7 7 18 12 26 12 7 0 41 21 73 47 98 77 180 201 200 303 5 25 16 50 24
56 11 9 15 33 15 103 0 78 -3 94 -20 111 -12 12 -20 33 -20 53 0 35 -33 77
-60 77 -7 0 -87 -74 -176 -164 -152 -152 -166 -164 -205 -168 -73 -7 -106 2
-143 38 -41 40 -60 99 -51 157 6 35 28 61 171 208 90 92 164 171 164 176 0 16
-45 53 -66 53 -35 0 -64 12 -64 26 0 11 -25 14 -125 14 -100 0 -125 -3 -125
-14z m217 -102 c2 -6 -43 -58 -101 -116 -121 -123 -150 -164 -165 -236 -12
-57 -4 -108 26 -167 19 -35 73 -95 87 -95 5 0 18 -8 28 -17 15 -13 38 -17 106
-17 78 0 91 3 132 29 25 15 94 75 153 133 76 74 111 102 119 94 14 -14 14
-115 -1 -182 -19 -87 -69 -176 -136 -241 -62 -61 -87 -78 -166 -109 -38 -15
-132 -33 -174 -32 -45 0 -134 17 -152 28 -12 8 -31 14 -41 14 -11 0 -25 7 -32
15 -7 8 -19 15 -26 15 -18 0 -140 120 -154 151 -5 13 -14 31 -19 39 -47 84
-66 218 -44 325 34 170 174 314 358 368 57 17 196 18 202 1z m-1345 -153 c83
-41 108 -59 116 -79 5 -15 15 -43 22 -62 29 -80 26 -93 -30 -150 l-53 -52 -64
21 c-111 37 -115 41 -170 153 -72 146 -72 137 -13 192 39 36 54 45 67 38 10
-5 66 -33 125 -61z m390 -478 c87 -87 158 -163 158 -170 0 -11 -65 -83 -75
-83 -2 0 -74 70 -159 156 -97 96 -156 163 -156 175 0 17 55 79 70 79 2 0 76
-71 162 -157z m368 -134 c0 -18 100 -127 156 -169 30 -22 54 -45 54 -50 0 -17
-814 -822 -851 -841 -21 -10 -50 -19 -65 -19 -38 0 -95 30 -131 70 -30 32 -33
41 -33 97 0 60 1 63 52 120 93 105 793 802 806 803 6 0 12 -5 12 -11z m487
-571 c128 -128 233 -238 233 -244 0 -6 7 -17 15 -24 25 -21 20 -134 -7 -171
-49 -66 -148 -90 -213 -51 -40 25 -495 480 -495 496 0 14 212 226 226 226 5 0
114 -105 241 -232z"/>
<path d="M357 283 c-14 -14 -6 -53 14 -67 19 -13 24 -13 45 1 42 27 25 73 -26
73 -15 0 -30 -3 -33 -7z"/>
<path d="M1647 283 c-14 -14 -6 -53 14 -67 19 -13 24 -13 45 1 42 27 25 73
-26 73 -15 0 -30 -3 -33 -7z"/>
</g>
</svg>
