<?xml version="1.0" standalone="no"?>
<!DOCTYPE svg PUBLIC "-//W3C//DTD SVG 20010904//EN"
 "http://www.w3.org/TR/2001/REC-SVG-20010904/DTD/svg10.dtd">
<svg version="1.0" xmlns="http://www.w3.org/2000/svg"
 width="111.000000pt" height="105.000000pt" viewBox="0 0 111.000000 105.000000"
 preserveAspectRatio="xMidYMid meet">
<metadata>
Created by potrace 1.10, written by Peter Selinger 2001-2011
</metadata>
<g transform="translate(0.000000,105.000000) scale(0.100000,-0.100000)"
 stroke="none">
<path d="M345 986 c-31 -13 -85 -75 -85 -96 0 -28 -44 -66 -93 -80 l-52 -16 0
-114 0 -115 45 -5 c81 -10 139 -70 68 -70 -18 0 -51 -7 -73 -14 -49 -17 -155
-119 -155 -149 0 -18 11 -11 63 40 84 83 112 93 259 93 146 0 178 -12 178 -66
0 -31 -4 -37 -37 -51 -21 -9 -67 -17 -102 -19 -35 -2 -69 -8 -75 -14 -13 -13
-22 -12 184 -14 l175 -2 90 86 c50 47 101 93 115 102 24 15 27 14 50 -4 17
-14 24 -29 24 -55 0 -33 -11 -46 -112 -144 l-112 -109 -219 0 -219 0 -26 -31
c-14 -17 -26 -35 -26 -40 0 -13 42 10 53 27 6 11 52 14 221 14 l213 0 44 31
c71 51 207 196 214 229 11 49 -3 87 -37 105 -17 8 -39 15 -48 15 -26 0 -76
-38 -164 -124 -77 -76 -79 -77 -125 -74 l-46 3 -5 60 c-5 54 -8 61 -39 82 -27
18 -48 23 -102 23 -80 0 -90 15 -35 49 28 18 49 21 135 21 55 0 101 -4 101 -9
0 -12 58 -41 82 -41 20 0 57 19 73 37 5 7 33 13 60 15 l50 3 3 102 c3 99 2
101 -24 122 -15 12 -38 21 -51 21 -29 0 -64 39 -102 115 -18 35 -35 50 -72 63
-47 16 -225 15 -264 -2z m266 -31 c16 -9 34 -26 40 -38 5 -12 18 -35 29 -52
11 -16 24 -40 29 -52 7 -15 23 -24 48 -29 72 -13 74 -16 71 -107 -3 -80 -4
-82 -28 -82 -18 0 -26 6 -28 22 -4 29 -56 81 -87 89 -33 8 -91 -29 -100 -64
-11 -46 -23 -52 -100 -52 -89 0 -105 5 -105 36 0 26 -44 72 -78 80 -33 9 -102
-39 -102 -70 0 -28 -24 -51 -45 -42 -12 4 -15 24 -15 90 0 88 4 96 51 96 25 0
69 29 69 45 0 7 7 18 15 25 8 7 15 19 15 27 0 19 36 65 63 80 33 19 221 17
258 -2z m-285 -297 c36 -34 32 -81 -8 -106 l-31 -20 -29 21 c-35 26 -38 70 -6
104 27 29 44 29 74 1z m386 -5 c36 -35 36 -66 -1 -92 -36 -26 -52 -26 -79 -1
-30 28 -28 66 4 95 34 31 41 31 76 -2z"/>
<path d="M350 898 c-6 -13 -19 -36 -29 -53 -11 -16 -20 -38 -20 -48 -1 -16 12
-17 177 -15 l177 3 -2 27 c-2 25 -35 84 -58 100 -5 4 -61 8 -123 8 -107 0
-113 -1 -122 -22z m244 -33 c34 -52 27 -55 -108 -55 -115 0 -125 2 -131 19 -4
12 1 28 12 40 15 16 32 19 114 20 92 1 97 0 113 -24z"/>
</g>
</svg>
