<?xml version="1.0" standalone="no"?>
<!DOCTYPE svg PUBLIC "-//W3C//DTD SVG 20010904//EN"
 "http://www.w3.org/TR/2001/REC-SVG-20010904/DTD/svg10.dtd">
<svg version="1.0" xmlns="http://www.w3.org/2000/svg"
 width="96.000000pt" height="129.000000pt" viewBox="0 0 96.000000 129.000000"
 preserveAspectRatio="xMidYMid meet">
<metadata>
Created by potrace 1.10, written by Peter Selinger 2001-2011
</metadata>
<g transform="translate(0.000000,129.000000) scale(0.100000,-0.100000)"
  stroke="none">
<path d="M334 1235 c-10 -8 -29 -15 -42 -15 -12 0 -25 -7 -28 -15 -4 -8 -16
-15 -27 -15 -26 0 -144 -120 -153 -155 -3 -13 -12 -26 -20 -29 -8 -3 -14 -16
-14 -28 0 -13 -7 -32 -15 -42 -21 -28 -21 -263 0 -290 8 -11 15 -32 15 -47 0
-14 7 -32 15 -39 8 -7 15 -18 15 -24 0 -17 66 -144 94 -181 15 -19 26 -38 26
-44 0 -5 6 -14 14 -18 7 -4 29 -30 47 -58 18 -27 69 -92 113 -143 59 -68 85
-92 100 -90 19 3 236 243 236 261 0 5 13 26 28 46 16 20 32 43 35 51 4 8 16
29 26 45 11 17 29 50 41 75 12 25 28 57 36 72 8 14 14 35 14 45 0 11 7 28 15
39 21 28 22 286 0 304 -8 7 -15 23 -15 35 0 12 -7 28 -15 35 -8 7 -15 18 -15
25 0 20 -132 155 -151 155 -9 0 -22 7 -29 15 -7 8 -22 15 -34 15 -11 0 -30 7
-40 15 -28 21 -244 21 -272 0z m266 -60 c7 -8 21 -15 32 -15 48 0 198 -152
198 -200 0 -10 7 -23 15 -30 21 -18 22 -247 0 -276 -8 -10 -15 -29 -15 -41 0
-21 -51 -126 -91 -188 -10 -16 -22 -37 -26 -45 -10 -23 -121 -167 -156 -204
-18 -18 -44 -47 -59 -64 -27 -33 -52 -35 -63 -4 -3 10 -22 35 -43 57 -47 52
-102 121 -102 130 0 4 -12 19 -26 34 -26 28 -35 43 -79 126 -14 28 -29 57 -34
65 -31 59 -41 84 -41 103 0 12 -7 31 -15 41 -22 29 -21 248 0 266 8 7 15 19
15 26 0 45 139 190 191 201 16 3 34 12 40 19 17 21 242 20 259 -1z"/>
<path d="M390 1025 c-7 -8 -18 -15 -25 -15 -21 0 -105 -89 -105 -111 0 -11 -7
-33 -15 -50 -15 -27 -14 -35 2 -92 14 -48 29 -72 70 -113 49 -49 55 -52 109
-56 117 -7 138 -1 199 55 33 32 55 60 55 73 0 12 7 27 15 34 9 7 15 29 15 52
0 22 -7 53 -15 69 -8 16 -22 44 -32 62 -19 38 -61 76 -84 77 -9 0 -22 7 -29
15 -9 11 -32 15 -80 15 -48 0 -71 -4 -80 -15z m150 -60 c7 -8 17 -15 22 -15
16 0 58 -43 58 -60 0 -8 7 -24 15 -34 19 -25 19 -65 0 -90 -8 -11 -15 -26 -15
-33 0 -8 -17 -30 -37 -48 -36 -33 -41 -35 -113 -35 -75 0 -76 0 -115 40 -39
40 -39 41 -40 118 0 66 3 81 24 110 14 17 33 32 43 32 10 0 21 7 24 15 5 11
22 15 64 15 39 0 62 -5 70 -15z"/>
</g>
</svg>
