<?xml version="1.0" standalone="no"?>
<!DOCTYPE svg PUBLIC "-//W3C//DTD SVG 20010904//EN"
 "http://www.w3.org/TR/2001/REC-SVG-20010904/DTD/svg10.dtd">
<svg version="1.0" xmlns="http://www.w3.org/2000/svg"
 width="105.000000pt" height="111.000000pt" viewBox="0 0 105.000000 111.000000"
 preserveAspectRatio="xMidYMid meet">
<metadata>
Created by potrace 1.10, written by Peter Selinger 2001-2011
</metadata>
<g transform="translate(0.000000,111.000000) scale(0.100000,-0.100000)"
  stroke="none">
<path d="M170 1046 c-7 -19 -19 -25 -57 -31 -27 -4 -58 -16 -70 -28 l-23 -20
0 -445 0 -444 29 -29 29 -29 439 0 438 1 30 24 30 25 0 445 0 445 -26 26 c-19
18 -41 28 -74 31 -37 5 -48 10 -56 29 -11 31 -24 30 -51 -1 l-22 -25 -272 0
-272 0 -16 25 c-21 31 -44 32 -56 1z m0 -91 c6 -15 17 -25 29 -25 12 0 21 9
25 25 l6 25 284 0 283 0 13 -24 c16 -30 39 -41 45 -21 3 8 7 22 10 30 7 23 53
18 81 -10 19 -19 24 -34 22 -58 l-3 -32 -450 0 -450 0 -3 26 c-2 17 6 37 23
58 33 39 71 42 85 6z m798 -498 c1 -221 -1 -345 -8 -357 -10 -19 -24 -20 -444
-20 l-433 0 -11 25 c-13 28 -18 676 -5 688 3 4 207 6 452 5 l446 -3 3 -338z"/>
<path d="M824 654 c-6 -3 -76 -70 -155 -150 -79 -80 -152 -150 -163 -156 -15
-8 -34 6 -121 91 -56 56 -104 101 -107 101 -3 0 -11 -7 -18 -15 -11 -13 5 -34
105 -135 92 -92 122 -117 134 -110 26 14 356 350 356 362 0 13 -15 18 -31 12z"/>
</g>
</svg>
