<?xml version="1.0" standalone="no"?>
<!DOCTYPE svg PUBLIC "-//W3C//DTD SVG 20010904//EN"
 "http://www.w3.org/TR/2001/REC-SVG-20010904/DTD/svg10.dtd">
<svg version="1.0" xmlns="http://www.w3.org/2000/svg"
 width="117.000000pt" height="120.000000pt" viewBox="0 0 117.000000 120.000000"
 preserveAspectRatio="xMidYMid meet">
<metadata>
Created by potrace 1.10, written by Peter Selinger 2001-2011
</metadata>
<g transform="translate(0.000000,120.000000) scale(0.100000,-0.100000)"
  stroke="none">
<path d="M399 1106 c-90 -30 -154 -70 -220 -135 -214 -214 -212 -538 4 -753
82 -82 163 -123 285 -146 73 -13 96 -13 166 -2 45 7 108 26 142 41 65 31 84
35 100 20 21 -22 208 -111 231 -111 29 0 29 11 -7 100 -12 30 -24 66 -28 80
-3 14 -12 36 -21 49 -20 31 -19 117 2 157 9 17 21 69 28 115 10 70 9 97 -4
165 -40 212 -174 357 -392 428 -73 24 -203 20 -286 -8z m246 -30 c112 -16 278
-129 325 -222 8 -16 19 -36 25 -44 33 -46 47 -121 43 -233 -3 -96 -8 -120 -31
-168 -15 -31 -27 -62 -27 -70 0 -8 12 -45 26 -84 50 -140 55 -157 50 -162 -3
-3 -53 17 -110 46 -95 47 -107 50 -133 39 -15 -6 -35 -17 -43 -23 -62 -47
-271 -61 -375 -24 -155 54 -297 216 -319 364 -21 136 -3 240 61 360 21 39 119
137 158 158 123 65 212 81 350 63z"/>
</g>
</svg>
