<?xml version="1.0" standalone="no"?>
<!DOCTYPE svg PUBLIC "-//W3C//DTD SVG 20010904//EN"
 "http://www.w3.org/TR/2001/REC-SVG-20010904/DTD/svg10.dtd">
<svg version="1.0" xmlns="http://www.w3.org/2000/svg"
 width="219.000000pt" height="144.000000pt" viewBox="0 0 219.000000 144.000000"
 preserveAspectRatio="xMidYMid meet">
<metadata>
Created by potrace 1.10, written by Peter Selinger 2001-2011
</metadata>
<g transform="translate(0.000000,144.000000) scale(0.100000,-0.100000)"
  stroke="none">
<path d="M30 1426 c0 -7 -7 -19 -15 -26 -13 -11 -15 -100 -15 -690 0 -643 1
-678 18 -693 17 -16 106 -17 1069 -17 922 0 1052 2 1063 15 7 8 19 15 26 15
12 0 14 109 14 679 0 678 0 679 -21 684 -11 3 -23 15 -26 26 l-5 21 -1054 0
c-889 0 -1054 -2 -1054 -14z m2085 -716 l0 -655 -1030 0 -1030 0 -3 645 c-1
355 0 651 3 658 3 10 215 12 1032 10 l1028 -3 0 -655z"/>
<path d="M1585 1130 c-96 -11 -171 -73 -200 -167 -15 -48 -16 -64 -6 -102 15
-59 57 -118 110 -156 39 -28 47 -29 145 -30 85 0 107 3 123 18 11 9 25 17 31
17 6 0 28 20 49 45 47 56 64 127 48 195 -30 131 -141 197 -300 180z m155 -80
c61 -31 85 -73 85 -150 0 -52 -5 -71 -23 -96 -41 -54 -73 -66 -174 -65 -84 1
-93 4 -127 30 -43 35 -76 113 -65 157 12 51 34 84 76 114 37 27 49 30 115 30
54 0 84 -5 113 -20z"/>
<path d="M264 425 c-3 -8 -3 -22 0 -30 5 -13 26 -15 133 -13 l128 3 0 25 0 25
-128 3 c-107 2 -128 0 -133 -13z"/>
<path d="M714 425 c-4 -8 -4 -22 0 -30 5 -13 28 -15 148 -13 l143 3 0 25 0 25
-143 3 c-120 2 -143 0 -148 -13z"/>
<path d="M1164 425 c-4 -8 -4 -22 0 -30 5 -13 28 -15 148 -13 l143 3 0 25 0
25 -143 3 c-120 2 -143 0 -148 -13z"/>
<path d="M1644 425 c-3 -8 -3 -22 0 -30 5 -13 26 -15 133 -13 l128 3 0 25 0
25 -128 3 c-107 2 -128 0 -133 -13z"/>
</g>
</svg>
