<?xml version="1.0" standalone="no"?>
<!DOCTYPE svg PUBLIC "-//W3C//DTD SVG 20010904//EN"
 "http://www.w3.org/TR/2001/REC-SVG-20010904/DTD/svg10.dtd">
<svg version="1.0" xmlns="http://www.w3.org/2000/svg"
 width="237.000000pt" height="132.000000pt" viewBox="0 0 237.000000 132.000000"
 preserveAspectRatio="xMidYMid meet">
<metadata>
Created by potrace 1.10, written by Peter Selinger 2001-2011
</metadata>
<g transform="translate(0.000000,132.000000) scale(0.100000,-0.100000)"
  stroke="none">
<path d="M0 660 l0 -660 1165 0 c770 0 1165 3 1165 10 0 6 9 10 20 10 20 0 20
7 20 650 l0 650 -1185 0 -1185 0 0 -660z m2295 -5 l0 -600 -1125 0 -1125 0 -3
589 c-1 428 1 592 9 602 10 12 194 14 1128 12 l1116 -3 0 -600z"/>
<path d="M390 1111 c-5 -11 -10 -35 -10 -54 0 -42 -29 -71 -96 -96 l-49 -19
-3 -276 c-1 -180 1 -284 8 -296 7 -13 21 -20 39 -20 40 0 101 -63 101 -105 0
-17 5 -36 12 -43 17 -17 1549 -17 1566 0 7 7 12 26 12 43 0 42 61 105 101 105
18 0 32 7 39 20 7 12 9 117 8 296 l-3 276 -55 21 c-62 23 -89 50 -90 89 0 15
-4 38 -10 52 l-10 26 -774 0 c-756 0 -776 0 -786 -19z m1520 -58 c1 -25 41
-88 71 -112 14 -10 36 -21 49 -23 l25 -3 0 -255 0 -255 -33 -17 c-41 -20 -72
-47 -83 -73 -5 -11 -13 -27 -18 -35 -5 -8 -12 -23 -15 -33 -5 -16 -49 -17
-731 -17 -682 0 -726 1 -731 17 -3 10 -10 25 -15 33 -5 8 -13 25 -18 36 -10
23 -41 49 -90 76 l-31 17 2 253 3 252 30 6 c42 9 85 39 85 60 0 10 7 23 15 30
8 7 15 23 15 36 l0 24 735 0 c693 0 735 -1 735 -17z"/>
<path d="M1084 827 c-23 -18 -56 -52 -73 -77 -28 -41 -31 -53 -31 -118 0 -61
4 -81 26 -118 30 -51 93 -104 124 -104 12 0 30 -4 40 -10 12 -6 35 -5 71 3 40
9 64 23 100 58 27 26 51 60 54 75 3 16 10 42 15 58 8 25 0 86 -16 131 -13 34
-46 73 -85 101 -40 29 -51 33 -114 33 -63 0 -74 -3 -111 -32z m217 -61 c19
-20 42 -58 53 -88 17 -51 17 -55 0 -98 -26 -67 -51 -95 -105 -120 -48 -23 -49
-23 -96 -5 -26 10 -62 34 -80 54 -31 34 -33 40 -33 114 0 83 11 112 59 154 22
18 38 22 97 23 67 0 72 -2 105 -34z"/>
<path d="M637 614 c-3 -4 -2 -15 4 -25 7 -15 21 -19 58 -19 49 0 79 18 66 40
-7 11 -117 14 -128 4z"/>
<path d="M1627 614 c-11 -11 13 -44 32 -44 22 0 45 25 36 40 -7 11 -58 14 -68
4z"/>
</g>
</svg>
