<?xml version="1.0" standalone="no"?>
<!DOCTYPE svg PUBLIC "-//W3C//DTD SVG 20010904//EN"
 "http://www.w3.org/TR/2001/REC-SVG-20010904/DTD/svg10.dtd">
<svg version="1.0" xmlns="http://www.w3.org/2000/svg"
 width="378.000000pt" height="357.000000pt" viewBox="0 0 378.000000 357.000000"
 preserveAspectRatio="xMidYMid meet">
<metadata>
Created by potrace 1.10, written by Peter Selinger 2001-2011
</metadata>
<g transform="translate(0.000000,357.000000) scale(0.100000,-0.100000)"
  stroke="none">
<path d="M1553 3558 c3 -14 -35 -26 -87 -27 -22 -1 -64 -8 -95 -17 -31 -9 -81
-23 -111 -31 -30 -8 -68 -21 -83 -29 -16 -8 -35 -14 -44 -14 -8 0 -27 -6 -41
-14 -15 -8 -61 -31 -102 -51 -41 -20 -88 -45 -105 -56 -16 -10 -39 -23 -50
-29 -122 -62 -364 -281 -482 -437 -33 -43 -63 -85 -67 -93 -7 -16 -17 -32 -57
-95 -14 -22 -40 -71 -58 -110 -19 -38 -40 -82 -47 -97 -8 -14 -14 -33 -14 -41
0 -9 -6 -28 -14 -44 -8 -15 -21 -53 -30 -83 -8 -30 -20 -75 -27 -100 -22 -80
-30 -161 -36 -370 -5 -198 3 -318 28 -415 6 -22 14 -60 19 -85 5 -25 18 -70
30 -100 12 -30 25 -68 30 -83 14 -44 120 -255 154 -306 186 -281 446 -516 706
-642 25 -12 52 -25 60 -30 8 -5 22 -12 30 -15 8 -3 29 -11 45 -18 109 -47 282
-92 435 -114 84 -13 386 -13 470 -1 122 18 261 52 355 86 106 40 121 46 135
54 8 5 22 12 30 15 8 3 22 10 30 15 8 5 22 12 30 15 8 3 22 10 30 15 8 5 24
14 35 19 11 6 34 19 50 30 17 11 39 24 50 29 11 5 31 19 45 33 14 13 39 32 55
43 67 41 289 263 330 330 11 17 30 41 43 55 14 14 28 34 33 45 5 11 18 34 29
50 11 17 24 39 30 50 5 11 14 27 19 35 5 8 12 22 15 30 3 8 10 23 16 33 5 9
15 25 20 35 12 20 12 20 63 157 35 97 73 251 83 340 3 33 8 71 11 85 11 63 14
252 3 320 -6 41 -15 107 -19 145 -5 39 -14 83 -20 98 -6 16 -11 37 -11 49 0
11 -9 33 -21 49 -18 25 -27 30 -57 27 -24 -2 -41 -11 -54 -29 -19 -25 -19 -29
-5 -80 39 -139 49 -229 45 -439 -4 -190 -13 -271 -40 -360 -6 -19 -15 -51 -19
-70 -8 -38 -24 -86 -47 -140 -9 -19 -21 -48 -28 -65 -25 -58 -56 -120 -75
-150 -10 -16 -23 -39 -29 -50 -11 -22 -63 -95 -127 -178 -54 -71 -188 -203
-235 -233 -20 -13 -45 -32 -55 -42 -18 -19 -95 -72 -123 -85 -8 -4 -28 -16
-45 -26 -30 -20 -95 -53 -150 -76 -16 -7 -46 -19 -65 -27 -52 -22 -101 -39
-140 -48 -19 -5 -53 -13 -75 -19 -142 -36 -196 -41 -385 -41 -107 1 -215 5
-240 11 -25 6 -65 14 -90 18 -74 13 -143 32 -173 47 -16 8 -35 14 -42 14 -16
0 -64 20 -148 61 -31 16 -62 29 -67 29 -5 0 -39 20 -76 45 -36 25 -67 45 -70
45 -14 0 -170 128 -245 201 -74 73 -239 276 -239 295 0 3 -13 26 -30 51 -16
24 -30 50 -30 57 0 8 -7 19 -15 26 -8 7 -15 20 -15 30 0 10 -7 23 -15 30 -8 7
-15 23 -15 36 0 12 -4 25 -9 28 -14 9 -67 186 -96 318 -23 108 -23 484 0 589
34 154 46 193 91 312 17 42 75 164 97 202 56 97 76 128 116 180 49 64 103 125
164 183 22 21 53 51 70 68 35 33 152 124 161 124 3 0 24 12 48 28 24 15 52 32
63 39 32 20 156 78 205 98 25 9 60 23 78 31 18 8 40 14 48 14 9 0 37 7 63 15
125 39 192 46 422 46 133 0 236 -4 247 -10 10 -5 43 -13 73 -16 55 -7 129 -27
187 -51 18 -8 40 -14 48 -14 9 0 30 -7 47 -16 73 -39 86 -44 100 -44 8 0 20
-7 27 -15 7 -8 18 -15 25 -15 7 0 44 -20 82 -45 37 -25 73 -45 80 -45 7 0 16
-6 20 -13 4 -7 37 -35 73 -62 109 -82 310 -296 310 -329 0 -8 -52 -86 -87
-131 -13 -16 -84 -113 -158 -215 -74 -102 -148 -203 -165 -225 -17 -22 -73
-98 -125 -170 -52 -71 -99 -136 -105 -143 -6 -7 -31 -41 -54 -76 -24 -34 -111
-153 -192 -264 -375 -505 -418 -565 -476 -649 -23 -35 -48 -63 -55 -63 -7 0
-74 82 -148 182 -74 101 -148 201 -165 223 -17 22 -111 150 -210 285 -99 135
-192 260 -207 279 -15 18 -39 52 -54 75 -14 22 -38 55 -53 71 -14 17 -26 33
-26 36 0 11 -57 31 -81 27 -12 -2 -31 -15 -42 -30 l-20 -27 57 -83 c31 -46 67
-96 79 -113 20 -26 333 -450 407 -550 179 -244 396 -535 413 -552 45 -50 82
-27 182 112 57 79 242 332 369 505 15 19 89 121 165 225 77 105 151 206 166
225 14 19 86 118 160 220 74 102 148 203 165 225 17 22 91 123 165 225 74 102
147 201 163 220 15 19 39 52 51 73 12 20 27 37 32 37 5 0 9 5 9 10 0 9 92 138
146 205 9 11 31 43 49 70 18 28 42 59 54 69 11 11 21 23 21 28 0 5 47 72 105
148 58 77 108 153 111 170 9 45 -17 80 -60 80 -28 0 -40 -7 -68 -42 -18 -24
-36 -47 -41 -53 -4 -5 -52 -71 -107 -145 -54 -74 -111 -151 -125 -170 -14 -19
-51 -70 -81 -112 -36 -51 -62 -78 -75 -78 -10 0 -19 4 -19 8 0 14 -130 154
-214 230 -71 63 -150 123 -245 184 -45 29 -68 42 -148 81 -43 21 -91 44 -106
52 -16 8 -35 15 -43 15 -9 0 -25 6 -37 12 -53 30 -303 88 -379 89 -10 0 -18 7
-18 15 0 12 -35 14 -215 14 -158 0 -214 -3 -212 -12z"/>
</g>
</svg>
