<?xml version="1.0" standalone="no"?>
<!DOCTYPE svg PUBLIC "-//W3C//DTD SVG 20010904//EN"
 "http://www.w3.org/TR/2001/REC-SVG-20010904/DTD/svg10.dtd">
<svg version="1.0" xmlns="http://www.w3.org/2000/svg"
 width="111.000000pt" height="102.000000pt" viewBox="0 0 111.000000 102.000000"
 preserveAspectRatio="xMidYMid meet">
<metadata>
Created by potrace 1.10, written by Peter Selinger 2001-2011
</metadata>
<g transform="translate(0.000000,102.000000) scale(0.100000,-0.100000)"
 stroke="none">
<path d="M796 913 c-4 -10 -33 -42 -65 -72 l-58 -54 71 -72 71 -72 62 64 c34
35 66 63 72 63 6 0 11 7 11 15 0 8 -5 15 -10 15 -6 0 -35 25 -65 55 -30 30
-55 59 -55 65 0 17 -28 11 -34 -7z m57 -164 l-38 -38 -37 37 -37 37 37 37 37
37 38 -37 37 -36 -37 -37z"/>
<path d="M217 812 c-24 -25 -28 -37 -26 -77 2 -36 -1 -49 -14 -57 -12 -6 -17
-20 -15 -44 1 -23 -4 -38 -16 -47 -11 -8 -16 -19 -12 -25 4 -6 -2 -19 -14 -29
-19 -17 -20 -28 -20 -228 0 -151 3 -214 12 -223 16 -16 190 -16 206 0 7 7 12
33 12 60 l0 47 196 3 c119 2 198 -1 202 -7 3 -5 5 -27 3 -48 -4 -60 8 -67 113
-67 58 0 96 4 104 12 9 9 12 72 12 223 0 198 -1 213 -20 230 -11 10 -17 22
-14 27 9 14 -46 67 -62 61 -19 -7 -18 -47 1 -63 8 -7 15 -19 15 -28 0 -8 7
-23 15 -32 11 -12 14 -53 15 -194 1 -98 -1 -180 -4 -183 -8 -8 -116 -7 -124 1
-3 4 -5 25 -3 47 5 69 6 69 -248 69 -163 0 -230 -3 -239 -12 -7 -7 -12 -33
-12 -59 l0 -47 -61 -4 c-34 -1 -63 0 -65 4 -11 17 -5 373 5 376 6 2 11 14 11
27 0 13 7 28 16 33 9 5 17 25 18 47 2 22 10 42 20 47 13 7 16 21 15 58 -4 78
3 81 193 83 156 2 163 3 163 22 0 19 -8 20 -175 23 l-176 2 -27 -28z"/>
<path d="M437 698 c-9 -28 5 -48 34 -48 19 0 29 -5 29 -15 0 -10 -10 -15 -29
-15 -16 0 -31 -6 -35 -15 -3 -10 -19 -15 -46 -15 -38 0 -40 -2 -40 -30 0 -20
-5 -30 -15 -30 -10 0 -15 10 -15 30 0 27 -3 30 -30 30 l-30 0 0 -65 c0 -36 -1
-68 -2 -72 -2 -5 12 -9 30 -11 24 -2 32 1 32 12 0 9 7 16 15 16 10 0 15 -10
15 -30 0 -24 4 -30 22 -30 13 0 44 -23 78 -59 l58 -59 133 -3 c129 -4 134 -3
134 16 0 19 -7 20 -116 20 l-116 0 -56 57 c-31 31 -66 58 -79 60 -21 3 -23 8
-23 58 l0 55 40 3 c22 2 44 10 48 18 6 10 27 14 70 14 57 0 65 -3 89 -31 24
-26 34 -30 85 -32 52 -2 58 0 58 18 0 17 -7 20 -41 20 -33 0 -48 6 -67 28 -20
21 -35 27 -67 27 -29 0 -40 4 -40 15 0 11 12 15 45 15 43 0 45 1 45 30 l0 30
-104 0 c-75 0 -106 -4 -109 -12z"/>
<path d="M562 464 c-9 -7 -12 -18 -8 -32 7 -20 14 -22 97 -22 74 0 91 3 96 16
13 35 -9 47 -92 48 -43 1 -85 -4 -93 -10z"/>
</g>
</svg>
