<?xml version="1.0" standalone="no"?>
<!DOCTYPE svg PUBLIC "-//W3C//DTD SVG 20010904//EN"
 "http://www.w3.org/TR/2001/REC-SVG-20010904/DTD/svg10.dtd">
<svg version="1.0" xmlns="http://www.w3.org/2000/svg"
 width="900.000000pt" height="615.000000pt" viewBox="0 0 900.000000 615.000000"
 preserveAspectRatio="xMidYMid meet">
<metadata>
Created by potrace 1.10, written by Peter Selinger 2001-2011
</metadata>
<g transform="translate(0.000000,615.000000) scale(0.100000,-0.100000)"
  stroke="none">
<path d="M753 6138 c1 -7 -20 -17 -53 -24 -162 -36 -304 -117 -435 -249 -126
-125 -201 -252 -248 -420 -16 -57 -23 -4327 -7 -4405 12 -56 43 -156 59 -188
5 -9 19 -37 31 -62 65 -128 217 -289 338 -358 130 -73 192 -95 352 -122 112
-19 178 -20 2837 -20 l2722 0 61 -37 c34 -21 78 -48 98 -60 37 -22 214 -99
282 -122 165 -57 302 -74 560 -68 210 5 246 9 380 40 108 26 278 91 360 138 8
5 24 14 35 19 11 6 34 19 50 30 17 11 37 23 45 27 43 19 187 138 276 227 90
90 224 253 224 272 0 4 6 15 14 23 20 22 92 161 122 235 14 33 29 70 34 81 5
11 11 31 13 45 3 14 10 39 15 55 21 60 42 164 42 204 0 28 7 48 20 61 19 19
20 33 20 206 0 112 -4 183 -9 179 -15 -9 -24 14 -32 84 -8 69 -28 160 -49 227
-23 73 -84 225 -92 230 -4 3 -8 11 -8 19 0 15 -97 177 -161 267 -22 32 -90
107 -150 167 l-109 109 0 1175 c0 1131 -1 1177 -20 1268 -24 114 -47 178 -95
266 -126 230 -352 403 -595 457 -33 7 -54 17 -52 24 1 9 -742 12 -3438 12
-2696 0 -3439 -3 -3437 -12z m6894 -258 c246 -77 397 -227 485 -483 22 -62 22
-67 25 -1165 3 -948 2 -1103 -10 -1108 -8 -3 -46 10 -83 29 -38 19 -94 45
-124 57 -30 12 -66 26 -80 32 -99 40 -301 78 -450 84 -145 6 -364 -7 -445 -27
-91 -22 -275 -81 -281 -90 -3 -5 -12 -9 -20 -9 -9 0 -48 -16 -87 -36 -40 -21
-85 -44 -102 -52 -37 -18 -127 -82 -200 -140 -60 -48 -81 -50 -104 -10 -9 15
-70 113 -136 218 -66 105 -127 202 -135 215 -14 23 -89 141 -120 190 -8 13
-42 68 -75 121 -74 121 -146 200 -232 255 -171 108 -375 106 -572 -6 -45 -25
-123 -110 -175 -190 -51 -77 -147 -232 -174 -278 -7 -12 -42 -67 -77 -122 -35
-55 -97 -153 -137 -218 -40 -65 -80 -129 -88 -142 -8 -13 -35 -56 -60 -95 -25
-39 -53 -83 -62 -98 -10 -15 -22 -36 -28 -47 -6 -11 -39 -65 -75 -120 -35 -55
-90 -142 -122 -194 -32 -51 -66 -105 -75 -120 -10 -14 -22 -35 -27 -46 -6 -11
-19 -31 -31 -45 l-20 -25 -31 35 c-17 19 -61 76 -99 125 -191 251 -236 295
-355 349 -28 13 -87 29 -133 36 -146 24 -292 -14 -418 -108 -36 -27 -144 -164
-404 -509 -195 -259 -364 -484 -375 -498 -11 -15 -39 -53 -63 -84 -97 -127
-209 -276 -242 -321 -19 -26 -102 -137 -185 -245 -82 -108 -157 -207 -165
-219 -24 -34 -141 -189 -166 -218 l-23 -28 -133 0 c-147 0 -231 17 -334 66
-157 74 -284 206 -346 359 -51 127 -48 -21 -48 2269 0 1936 1 2125 16 2171 30
93 47 130 87 190 94 144 223 241 392 294 58 19 147 19 3460 20 3340 1 3401 0
3462 -19z m-2325 -2101 c70 -36 123 -93 193 -211 9 -15 71 -114 115 -183 8
-13 41 -65 73 -117 32 -51 87 -138 123 -193 35 -55 67 -107 71 -115 4 -8 26
-43 50 -77 24 -35 43 -67 43 -72 0 -5 6 -14 14 -20 28 -23 24 -57 -10 -102
-174 -228 -302 -516 -335 -754 -30 -214 -31 -274 -4 -520 15 -130 105 -414
165 -515 5 -8 18 -32 30 -54 40 -73 128 -201 173 -251 25 -27 43 -53 41 -57
-8 -12 -4664 -10 -4664 2 0 5 18 33 41 62 39 52 157 208 195 259 10 15 87 116
169 224 195 257 230 303 259 345 13 19 45 63 72 97 27 34 69 89 94 123 25 33
50 66 56 73 5 6 133 175 282 374 283 378 297 393 396 426 63 21 109 21 172 0
107 -36 123 -53 380 -394 114 -151 172 -220 197 -234 36 -19 37 -19 83 0 41
18 54 32 110 120 35 55 69 110 76 122 7 12 33 54 58 93 66 105 70 111 133 212
32 51 94 149 138 218 43 69 83 134 89 145 5 11 39 65 74 120 36 55 91 142 123
193 32 51 65 104 73 117 8 13 42 67 75 120 234 376 246 391 315 422 76 35 195
35 262 2z m2156 -689 c91 -10 133 -19 272 -57 78 -22 286 -123 369 -180 172
-118 330 -283 428 -448 26 -45 103 -203 118 -245 96 -268 113 -623 41 -860 -8
-25 -17 -60 -21 -77 -4 -18 -11 -35 -16 -38 -5 -4 -9 -13 -9 -22 0 -32 -80
-193 -147 -295 -92 -139 -259 -307 -401 -401 -104 -68 -272 -146 -397 -183
-254 -74 -548 -74 -815 -1 -101 28 -242 90 -340 151 -318 196 -546 502 -643
866 -35 130 -49 269 -45 424 3 83 11 174 18 201 49 199 55 217 119 355 82 176
227 360 391 495 126 104 338 218 485 260 33 9 80 23 105 31 25 8 63 14 85 15
22 0 58 4 80 8 58 12 212 13 323 1z"/>
<path d="M1815 4993 c-67 -10 -137 -30 -183 -51 -74 -35 -159 -122 -202 -207
-34 -69 -34 -72 -34 -195 0 -122 0 -127 33 -192 45 -90 124 -167 220 -215 75
-37 78 -38 191 -37 108 0 119 2 177 32 86 42 127 76 176 141 56 74 73 113 88
204 39 233 -112 454 -346 505 -69 15 -97 18 -120 15z"/>
<path d="M7248 2631 l-32 -28 -7 -179 c-4 -99 -8 -276 -9 -394 -1 -118 -6
-222 -11 -231 -8 -15 -45 -16 -403 -11 -363 5 -397 4 -421 -12 -54 -35 -67
-123 -26 -170 44 -50 50 -51 464 -54 l389 -4 -3 -410 -4 -410 33 -29 c17 -16
43 -31 57 -35 31 -8 92 22 119 59 20 27 21 47 29 420 5 216 12 395 16 400 4 4
173 2 377 -3 273 -8 379 -8 409 0 54 16 80 52 80 113 0 42 -4 53 -31 77 l-32
28 -198 6 c-110 3 -291 9 -404 14 l-205 7 3 382 c3 262 0 393 -7 416 -26 77
-122 102 -183 48z"/>
</g>
</svg>
