<?xml version="1.0" standalone="no"?>
<!DOCTYPE svg PUBLIC "-//W3C//DTD SVG 20010904//EN"
 "http://www.w3.org/TR/2001/REC-SVG-20010904/DTD/svg10.dtd">
<svg version="1.0" xmlns="http://www.w3.org/2000/svg"
 width="120.000000pt" height="96.000000pt" viewBox="0 0 120.000000 96.000000"
 preserveAspectRatio="xMidYMid meet">
<metadata>
Created by potrace 1.10, written by Peter Selinger 2001-2011
</metadata>
<g transform="translate(0.000000,96.000000) scale(0.100000,-0.100000)"
 stroke="none">
<path d="M805 879 c-4 -5 -17 -15 -28 -20 -12 -5 -36 -18 -54 -29 -17 -10 -48
-22 -67 -26 -20 -3 -36 -10 -36 -14 0 -5 -10 -12 -22 -16 -13 -3 -43 -26 -66
-50 -24 -24 -50 -44 -57 -44 -7 0 -18 -7 -25 -15 -7 -8 -21 -15 -30 -15 -15 0
-18 -7 -15 -37 6 -60 16 -83 36 -83 10 0 22 -6 26 -12 9 -15 37 -33 71 -48 12
-5 22 -14 22 -20 0 -5 9 -10 19 -10 10 0 21 -7 25 -15 3 -9 18 -15 35 -15 16
0 31 6 35 15 3 8 14 15 25 15 10 0 21 7 25 15 6 17 46 21 46 4 0 -6 -9 -13
-19 -16 -11 -3 -22 -11 -25 -19 -3 -8 -14 -14 -25 -14 -10 0 -21 -7 -25 -15
-7 -20 -65 -20 -72 0 -4 8 -15 15 -25 15 -10 0 -19 4 -19 9 0 9 -29 28 -77 50
-13 6 -23 15 -23 21 0 5 -11 10 -25 10 -16 0 -25 -6 -25 -15 0 -8 6 -15 14
-15 7 0 19 -7 26 -15 7 -8 21 -15 31 -15 11 0 19 -7 19 -15 0 -8 9 -15 20 -15
11 0 23 -7 26 -15 4 -8 14 -15 24 -15 10 0 20 -7 24 -15 8 -21 82 -21 90 0 3
8 14 15 25 15 10 0 21 7 25 15 3 8 12 15 21 15 8 0 15 -7 15 -15 0 -8 -6 -15
-14 -15 -8 0 -16 -7 -20 -15 -3 -8 -14 -15 -25 -15 -10 0 -21 -7 -25 -15 -8
-21 -84 -21 -92 0 -4 8 -15 15 -25 15 -11 0 -22 7 -25 15 -4 8 -15 15 -25 15
-10 0 -19 5 -19 10 0 6 -11 15 -25 20 -14 5 -25 14 -25 20 0 12 -37 14 -44 2
-5 -8 46 -52 60 -52 3 0 23 -13 43 -28 20 -16 43 -32 51 -35 8 -4 29 -15 45
-26 30 -18 36 -17 85 11 8 4 25 12 37 17 11 6 24 15 28 20 3 6 15 11 27 11 11
0 40 14 65 30 24 17 47 30 52 30 4 0 18 12 32 26 13 14 33 30 44 35 44 21 69
38 78 54 11 21 1 33 -15 17 -7 -7 -20 -12 -29 -12 -9 0 -19 -7 -23 -15 -3 -8
-15 -15 -26 -15 -11 0 -20 -5 -20 -12 0 -6 -2 -9 -5 -7 -10 11 9 49 25 49 10
0 20 7 24 15 3 8 13 15 23 15 10 0 29 11 41 25 22 22 22 26 7 31 -11 5 -21 1
-27 -9 -5 -10 -17 -17 -27 -17 -11 0 -21 -7 -25 -15 -3 -8 -15 -15 -26 -15
-11 0 -20 7 -20 15 0 8 9 15 19 15 10 0 21 7 25 15 3 8 15 15 26 15 11 0 20 5
20 10 0 6 12 15 26 20 14 6 22 14 19 20 -9 15 -45 12 -51 -5 -4 -8 -14 -15
-25 -15 -10 0 -22 -7 -27 -17 -6 -10 -16 -14 -28 -9 -16 6 -15 9 11 31 17 13
38 24 48 25 9 0 17 7 17 15 0 8 8 15 18 15 18 0 52 29 52 44 0 3 -10 11 -22
16 -13 6 -36 19 -53 30 -16 11 -39 24 -50 30 -42 23 -67 38 -78 49 -14 14 -64
14 -72 0z m61 -34 c4 -8 15 -15 25 -15 11 0 22 -7 25 -15 4 -8 14 -15 24 -15
10 0 23 -7 30 -15 7 -8 18 -15 26 -15 23 0 25 -19 4 -40 -26 -26 -40 -25 -40
1 0 23 -43 69 -64 69 -8 0 -19 7 -26 15 -7 8 -23 15 -36 15 -15 0 -24 6 -24
15 0 9 9 15 25 15 14 0 28 -7 31 -15z m-11 -56 c4 -5 18 -14 32 -20 18 -6 24
-15 21 -32 -2 -17 -10 -23 -39 -25 -23 -2 -42 3 -52 12 -9 9 -23 16 -31 16
-25 0 -19 24 12 42 31 20 48 22 57 7z m-160 -30 c4 -5 17 -15 28 -20 12 -5 36
-18 52 -29 17 -11 37 -23 45 -27 8 -3 27 -15 43 -25 26 -19 27 -22 27 -116 -1
-92 -2 -98 -26 -115 -47 -35 -58 -22 -57 73 1 83 -12 120 -40 120 -5 0 -26 12
-46 28 -46 34 -70 49 -100 62 -20 9 -21 12 -10 28 8 9 19 20 24 24 15 11 53 9
60 -3z m-165 -98 c0 -5 -5 -11 -11 -13 -19 -6 1 -58 22 -58 11 0 22 -7 25 -15
4 -10 20 -15 48 -15 51 0 87 -10 81 -21 -3 -4 -12 -6 -20 -3 -8 4 -18 -1 -21
-10 -7 -17 -34 -22 -34 -6 0 6 -9 10 -20 10 -11 0 -23 7 -26 15 -4 8 -15 15
-25 15 -11 0 -22 7 -25 15 -4 8 -14 15 -24 15 -10 0 -25 11 -34 25 -16 24 -16
26 1 31 10 3 25 9 33 14 20 12 30 12 30 1z m105 -12 c-6 -18 -5 -19 15 -7 18
12 23 10 40 -12 10 -13 16 -28 14 -32 -3 -4 -28 -8 -56 -8 -75 0 -116 42 -65
66 38 20 59 17 52 -7z m-130 -98 c7 -12 -12 -24 -25 -16 -11 7 -4 25 10 25 5
0 11 -4 15 -9z m255 -31 c0 -13 -7 -20 -20 -20 -11 0 -23 -7 -26 -15 -4 -8
-14 -15 -24 -15 -10 0 -23 -7 -30 -15 -7 -8 -19 -15 -27 -15 -7 0 -16 7 -19
15 -4 8 -15 15 -25 15 -10 0 -19 7 -19 15 0 8 9 15 20 15 11 0 23 -7 26 -15 4
-8 13 -15 20 -15 8 0 17 7 20 15 4 8 14 15 25 15 10 0 22 6 26 14 4 8 17 16
28 19 11 2 21 5 23 6 1 0 2 -8 2 -19z m-200 -5 c0 -8 -6 -15 -14 -15 -17 0
-28 14 -19 24 12 12 33 6 33 -9z"/>
<path d="M224 838 c-27 -31 -54 -93 -54 -126 -1 -15 -7 -38 -15 -52 -8 -14
-14 -36 -15 -49 0 -14 -8 -33 -17 -44 -16 -17 -18 -46 -21 -226 -4 -251 -6
-246 97 -246 80 0 99 12 110 66 l7 34 196 3 195 2 6 -37 c8 -48 46 -73 111
-73 82 0 106 22 106 98 0 22 -5 32 -15 32 -10 0 -15 -10 -15 -33 0 -20 -8 -41
-18 -50 -24 -22 -85 -22 -118 0 -21 13 -25 23 -22 52 l3 36 -230 0 -230 0 -3
-35 c-5 -52 -27 -70 -83 -70 -38 0 -51 4 -59 19 -6 12 -10 93 -10 193 0 154 2
178 20 213 11 22 20 51 20 65 0 14 7 34 15 44 8 11 15 34 15 52 0 31 33 101
55 116 5 4 49 8 98 8 71 0 87 3 87 15 0 12 -18 15 -98 15 -90 0 -100 -2 -118
-22z"/>
<path d="M240 482 c-52 -25 -64 -99 -23 -144 24 -26 94 -24 119 3 29 32 25
106 -7 130 -35 26 -53 28 -89 11z m81 -55 c7 -15 7 -31 0 -50 -9 -22 -17 -27
-46 -27 -29 0 -37 5 -45 26 -14 36 -13 42 15 70 21 21 28 23 45 14 12 -6 26
-21 31 -33z"/>
</g>
</svg>
